<mxfile host="Electron" agent="Mozilla/5.0 (Windows NT 10.0; Win64; x64) AppleWebKit/537.36 (KHTML, like Gecko) draw.io/26.0.16 Chrome/132.0.6834.196 Electron/34.2.0 Safari/537.36" version="26.0.16">
  <diagram name="Page-1" id="KP4Qv6nfxwbfrnBd7RsM">
    <mxGraphModel dx="3000" dy="2897" grid="1" gridSize="10" guides="1" tooltips="1" connect="1" arrows="1" fold="1" page="1" pageScale="1" pageWidth="850" pageHeight="1100" math="0" shadow="0">
      <root>
        <mxCell id="0" />
        <mxCell id="1" parent="0" />
        <mxCell id="ixsVfjGWsq4LzC2qJ3sS-3" value="&lt;b&gt;&lt;font style=&quot;color: rgb(255, 255, 255); font-size: 16px;&quot;&gt;Address&lt;/font&gt;&lt;/b&gt;" style="ellipse;whiteSpace=wrap;html=1;align=center;fillColor=light-dark(#182e3e, #ededed);rotation=0;rounded=1;strokeColor=light-dark(#182e3e, #ededed);" parent="1" vertex="1">
          <mxGeometry x="1769.999999999999" y="465" width="100" height="40" as="geometry" />
        </mxCell>
        <mxCell id="ixsVfjGWsq4LzC2qJ3sS-4" value="&lt;b&gt;&lt;font style=&quot;color: rgb(255, 255, 255); font-size: 16px;&quot;&gt;DateOfBirth&lt;/font&gt;&lt;/b&gt;" style="ellipse;whiteSpace=wrap;html=1;align=center;fillColor=#182E3E;rotation=0;rounded=1;" parent="1" vertex="1">
          <mxGeometry x="1940" y="580" width="100" height="40" as="geometry" />
        </mxCell>
        <mxCell id="ixsVfjGWsq4LzC2qJ3sS-5" value="&lt;b&gt;&lt;font style=&quot;color: rgb(255, 255, 255); font-size: 16px;&quot;&gt;Email&lt;/font&gt;&lt;/b&gt;" style="ellipse;whiteSpace=wrap;html=1;align=center;fillColor=light-dark(#182e3e, #ededed);rotation=0;rounded=1;strokeColor=light-dark(#182e3e, #ededed);" parent="1" vertex="1">
          <mxGeometry x="1675.5600000000004" y="410" width="100" height="40" as="geometry" />
        </mxCell>
        <mxCell id="ixsVfjGWsq4LzC2qJ3sS-6" value="&lt;b&gt;&lt;font style=&quot;color: rgb(255, 255, 255); font-size: 16px;&quot;&gt;Age&lt;/font&gt;&lt;/b&gt;" style="ellipse;whiteSpace=wrap;html=1;align=center;dashed=1;rotation=0;strokeWidth=5;fillColor=light-dark(#182e3e, #ff6ac1);strokeColor=light-dark(#BC124C,#1D293B);rounded=1;fillStyle=auto;perimeterSpacing=2;" parent="1" vertex="1">
          <mxGeometry x="1269.999999999999" y="650" width="108.19" height="40" as="geometry" />
        </mxCell>
        <mxCell id="ixsVfjGWsq4LzC2qJ3sS-7" value="&lt;b&gt;&lt;font style=&quot;color: rgb(255, 255, 255); font-size: 16px;&quot;&gt;PhoneNumber&lt;/font&gt;&lt;/b&gt;" style="ellipse;whiteSpace=wrap;html=1;align=center;fillColor=light-dark(#182E3E,#EDEDED);rotation=0;rounded=1;" parent="1" vertex="1">
          <mxGeometry x="1475.5600000000004" y="570" width="120" height="40" as="geometry" />
        </mxCell>
        <mxCell id="ixsVfjGWsq4LzC2qJ3sS-8" value="&lt;b&gt;&lt;font style=&quot;font-size: 14px; color: rgb(255, 255, 255);&quot;&gt;Gender&lt;/font&gt;&lt;/b&gt;" style="ellipse;whiteSpace=wrap;html=1;align=center;fillColor=light-dark(#182E3E,#EDEDED);rotation=0;rounded=1;" parent="1" vertex="1">
          <mxGeometry x="1475.5600000000004" y="410" width="100" height="40" as="geometry" />
        </mxCell>
        <mxCell id="ixsVfjGWsq4LzC2qJ3sS-9" style="rounded=1;orthogonalLoop=1;jettySize=auto;html=1;exitX=0.5;exitY=0;exitDx=0;exitDy=0;endArrow=none;startFill=0;strokeWidth=2;" parent="1" source="ixsVfjGWsq4LzC2qJ3sS-11" target="ixsVfjGWsq4LzC2qJ3sS-14" edge="1">
          <mxGeometry relative="1" as="geometry" />
        </mxCell>
        <mxCell id="ixsVfjGWsq4LzC2qJ3sS-10" style="rounded=1;orthogonalLoop=1;jettySize=auto;html=1;entryX=0.5;entryY=1;entryDx=0;entryDy=0;exitX=0.5;exitY=0;exitDx=0;exitDy=0;endArrow=none;startFill=0;strokeWidth=2;" parent="1" source="ixsVfjGWsq4LzC2qJ3sS-11" target="ixsVfjGWsq4LzC2qJ3sS-13" edge="1">
          <mxGeometry relative="1" as="geometry" />
        </mxCell>
        <mxCell id="ixsVfjGWsq4LzC2qJ3sS-11" value="&lt;b&gt;&lt;font style=&quot;color: rgb(255, 255, 255); font-size: 16px;&quot;&gt;FullName&lt;/font&gt;&lt;/b&gt;" style="ellipse;whiteSpace=wrap;html=1;align=center;fillColor=light-dark(#182E3E,#EDEDED);rotation=0;rounded=1;" parent="1" vertex="1">
          <mxGeometry x="1360" y="570" width="100" height="40" as="geometry" />
        </mxCell>
        <mxCell id="ixsVfjGWsq4LzC2qJ3sS-12" value="&lt;b&gt;&lt;font style=&quot;color: rgb(255, 255, 255); font-size: 16px;&quot;&gt;NationalID&lt;/font&gt;&lt;/b&gt;" style="ellipse;whiteSpace=wrap;html=1;align=center;fillColor=light-dark(#182e3e, #ededed);rotation=0;rounded=1;" parent="1" vertex="1">
          <mxGeometry x="1840" y="520" width="120" height="40" as="geometry" />
        </mxCell>
        <mxCell id="ixsVfjGWsq4LzC2qJ3sS-13" value="&lt;b&gt;&lt;font style=&quot;color: rgb(255, 255, 255); font-size: 16px;&quot;&gt;FName&lt;/font&gt;&lt;/b&gt;" style="ellipse;whiteSpace=wrap;html=1;align=center;fillColor=light-dark(#182E3E,#EDEDED);rotation=0;rounded=1;" parent="1" vertex="1">
          <mxGeometry x="1290" y="465" width="100" height="40" as="geometry" />
        </mxCell>
        <mxCell id="ixsVfjGWsq4LzC2qJ3sS-14" value="&lt;b&gt;&lt;font style=&quot;color: rgb(255, 255, 255); font-size: 16px;&quot;&gt;LName&lt;/font&gt;&lt;/b&gt;" style="ellipse;whiteSpace=wrap;html=1;align=center;fillColor=light-dark(#182E3E,#EDEDED);rotation=0;rounded=1;" parent="1" vertex="1">
          <mxGeometry x="1410" y="460" width="100" height="40" as="geometry" />
        </mxCell>
        <mxCell id="ixsVfjGWsq4LzC2qJ3sS-15" style="edgeStyle=orthogonalEdgeStyle;rounded=0;orthogonalLoop=1;jettySize=auto;html=1;entryX=0.5;entryY=1;entryDx=0;entryDy=0;strokeColor=#23445D;endArrow=none;startFill=0;strokeWidth=2;" parent="1" source="ixsVfjGWsq4LzC2qJ3sS-25" target="ixsVfjGWsq4LzC2qJ3sS-26" edge="1">
          <mxGeometry relative="1" as="geometry" />
        </mxCell>
        <mxCell id="ixsVfjGWsq4LzC2qJ3sS-16" style="edgeStyle=orthogonalEdgeStyle;rounded=0;orthogonalLoop=1;jettySize=auto;html=1;entryX=0.5;entryY=1;entryDx=0;entryDy=0;strokeColor=#23445D;endArrow=none;startFill=0;strokeWidth=2;" parent="1" source="ixsVfjGWsq4LzC2qJ3sS-25" target="ixsVfjGWsq4LzC2qJ3sS-8" edge="1">
          <mxGeometry relative="1" as="geometry">
            <Array as="points">
              <mxPoint x="1626" y="530" />
              <mxPoint x="1526" y="530" />
            </Array>
          </mxGeometry>
        </mxCell>
        <mxCell id="ixsVfjGWsq4LzC2qJ3sS-17" style="edgeStyle=orthogonalEdgeStyle;rounded=0;orthogonalLoop=1;jettySize=auto;html=1;entryX=0.5;entryY=1;entryDx=0;entryDy=0;strokeColor=#23445D;endArrow=none;startFill=0;strokeWidth=2;" parent="1" source="ixsVfjGWsq4LzC2qJ3sS-25" target="ixsVfjGWsq4LzC2qJ3sS-5" edge="1">
          <mxGeometry relative="1" as="geometry">
            <Array as="points">
              <mxPoint x="1626" y="530" />
              <mxPoint x="1726" y="530" />
            </Array>
          </mxGeometry>
        </mxCell>
        <mxCell id="ixsVfjGWsq4LzC2qJ3sS-18" style="edgeStyle=orthogonalEdgeStyle;rounded=0;orthogonalLoop=1;jettySize=auto;html=1;entryX=0.5;entryY=1;entryDx=0;entryDy=0;strokeColor=#23445D;endArrow=none;startFill=0;strokeWidth=2;" parent="1" source="ixsVfjGWsq4LzC2qJ3sS-25" target="ixsVfjGWsq4LzC2qJ3sS-3" edge="1">
          <mxGeometry relative="1" as="geometry">
            <Array as="points">
              <mxPoint x="1626" y="580" />
              <mxPoint x="1820" y="580" />
            </Array>
          </mxGeometry>
        </mxCell>
        <mxCell id="ixsVfjGWsq4LzC2qJ3sS-19" style="edgeStyle=orthogonalEdgeStyle;rounded=0;orthogonalLoop=1;jettySize=auto;html=1;entryX=0.5;entryY=1;entryDx=0;entryDy=0;strokeColor=#23445D;endArrow=none;startFill=0;strokeWidth=2;" parent="1" source="ixsVfjGWsq4LzC2qJ3sS-25" target="ixsVfjGWsq4LzC2qJ3sS-12" edge="1">
          <mxGeometry relative="1" as="geometry">
            <Array as="points">
              <mxPoint x="1626" y="610" />
              <mxPoint x="1900" y="610" />
            </Array>
          </mxGeometry>
        </mxCell>
        <mxCell id="ixsVfjGWsq4LzC2qJ3sS-20" style="edgeStyle=orthogonalEdgeStyle;rounded=0;orthogonalLoop=1;jettySize=auto;html=1;entryX=0.5;entryY=1;entryDx=0;entryDy=0;strokeColor=#23445D;endArrow=none;startFill=0;strokeWidth=2;" parent="1" source="ixsVfjGWsq4LzC2qJ3sS-25" target="ixsVfjGWsq4LzC2qJ3sS-6" edge="1">
          <mxGeometry relative="1" as="geometry">
            <Array as="points">
              <mxPoint x="1626" y="730" />
              <mxPoint x="1324" y="730" />
            </Array>
          </mxGeometry>
        </mxCell>
        <mxCell id="ixsVfjGWsq4LzC2qJ3sS-21" style="edgeStyle=orthogonalEdgeStyle;rounded=0;orthogonalLoop=1;jettySize=auto;html=1;entryX=0.5;entryY=1;entryDx=0;entryDy=0;strokeColor=#23445D;endArrow=none;startFill=0;strokeWidth=2;" parent="1" source="ixsVfjGWsq4LzC2qJ3sS-25" target="ixsVfjGWsq4LzC2qJ3sS-11" edge="1">
          <mxGeometry relative="1" as="geometry">
            <Array as="points">
              <mxPoint x="1626" y="690" />
              <mxPoint x="1410" y="690" />
            </Array>
          </mxGeometry>
        </mxCell>
        <mxCell id="ixsVfjGWsq4LzC2qJ3sS-22" style="edgeStyle=orthogonalEdgeStyle;rounded=0;orthogonalLoop=1;jettySize=auto;html=1;strokeColor=#23445D;endArrow=none;startFill=0;strokeWidth=2;" parent="1" source="ixsVfjGWsq4LzC2qJ3sS-25" target="ixsVfjGWsq4LzC2qJ3sS-7" edge="1">
          <mxGeometry relative="1" as="geometry">
            <Array as="points">
              <mxPoint x="1626" y="680" />
              <mxPoint x="1540" y="680" />
            </Array>
          </mxGeometry>
        </mxCell>
        <mxCell id="ixsVfjGWsq4LzC2qJ3sS-23" style="edgeStyle=orthogonalEdgeStyle;rounded=0;orthogonalLoop=1;jettySize=auto;html=1;entryX=0.5;entryY=1;entryDx=0;entryDy=0;strokeColor=#23445D;endArrow=none;startFill=0;strokeWidth=2;" parent="1" source="ixsVfjGWsq4LzC2qJ3sS-25" target="ixsVfjGWsq4LzC2qJ3sS-4" edge="1">
          <mxGeometry relative="1" as="geometry">
            <Array as="points">
              <mxPoint x="1626" y="670" />
              <mxPoint x="1990" y="670" />
            </Array>
          </mxGeometry>
        </mxCell>
        <mxCell id="ixsVfjGWsq4LzC2qJ3sS-24" style="edgeStyle=orthogonalEdgeStyle;rounded=0;orthogonalLoop=1;jettySize=auto;html=1;entryX=0.5;entryY=0;entryDx=0;entryDy=0;strokeColor=#23445D;endArrow=none;startFill=0;shape=link;strokeWidth=2;" parent="1" source="ixsVfjGWsq4LzC2qJ3sS-25" target="ixsVfjGWsq4LzC2qJ3sS-44" edge="1">
          <mxGeometry relative="1" as="geometry" />
        </mxCell>
        <mxCell id="ixsVfjGWsq4LzC2qJ3sS-25" value="&lt;font style=&quot;font-size: 30px;&quot;&gt;&lt;b style=&quot;&quot;&gt;Person&lt;/b&gt;&lt;/font&gt;" style="rounded=1;whiteSpace=wrap;html=1;fillColor=light-dark(#BC124C,#1D293B);strokeColor=#FFFFFF;labelBackgroundColor=none;fontColor=#FFFFFF;" parent="1" vertex="1">
          <mxGeometry x="1539.3100000000004" y="795" width="172.5" height="80" as="geometry" />
        </mxCell>
        <mxCell id="ixsVfjGWsq4LzC2qJ3sS-26" value="&lt;font style=&quot;font-size: 18px;&quot;&gt;&lt;b&gt;PersonID&lt;/b&gt;&lt;/font&gt;" style="ellipse;whiteSpace=wrap;html=1;align=center;fontStyle=4;strokeColor=#FFFFFF;fontColor=#FFFFFF;fillColor=#182E3E;" parent="1" vertex="1">
          <mxGeometry x="1575.5600000000004" y="340" width="100" height="40" as="geometry" />
        </mxCell>
        <mxCell id="ixsVfjGWsq4LzC2qJ3sS-27" value="&lt;b&gt;&lt;font style=&quot;color: rgb(255, 255, 255); font-size: 16px;&quot;&gt;Password&lt;/font&gt;&lt;/b&gt;" style="ellipse;whiteSpace=wrap;html=1;align=center;fillColor=light-dark(#182E3E,#1D293B);rotation=0;rounded=1;strokeColor=light-dark(#182e3e, #ededed);" parent="1" vertex="1">
          <mxGeometry x="475" y="550" width="150" height="40" as="geometry" />
        </mxCell>
        <mxCell id="ixsVfjGWsq4LzC2qJ3sS-28" value="&lt;b&gt;&lt;font style=&quot;color: rgb(255, 255, 255); font-size: 16px;&quot;&gt;UserName&lt;/font&gt;&lt;/b&gt;" style="ellipse;whiteSpace=wrap;html=1;align=center;fillColor=light-dark(#182E3E,#1D293B);rotation=0;rounded=1;strokeColor=light-dark(#182e3e, #ededed);" parent="1" vertex="1">
          <mxGeometry x="740" y="570" width="100" height="40" as="geometry" />
        </mxCell>
        <mxCell id="ixsVfjGWsq4LzC2qJ3sS-29" value="&lt;b&gt;&lt;font style=&quot;color: rgb(255, 255, 255); font-size: 16px;&quot;&gt;UserID&lt;/font&gt;&lt;/b&gt;" style="ellipse;whiteSpace=wrap;html=1;align=center;fontStyle=4;fillColor=light-dark(#182E3E,#1D293B);strokeColor=light-dark(#182e3e, #ededed);rotation=0;rounded=1;" parent="1" vertex="1">
          <mxGeometry x="600" y="450" width="100" height="44.26" as="geometry" />
        </mxCell>
        <mxCell id="ixsVfjGWsq4LzC2qJ3sS-30" value="&lt;b&gt;&lt;font style=&quot;color: rgb(255, 255, 255); font-size: 16px;&quot;&gt;UserRole&lt;/font&gt;&lt;/b&gt;" style="ellipse;whiteSpace=wrap;html=1;align=center;fillColor=light-dark(#182E3E,#1D293B);rotation=0;rounded=1;strokeColor=light-dark(#182e3e, #ededed);" parent="1" vertex="1">
          <mxGeometry x="680" y="510" width="100" height="40" as="geometry" />
        </mxCell>
        <mxCell id="ixsVfjGWsq4LzC2qJ3sS-31" style="edgeStyle=orthogonalEdgeStyle;rounded=1;orthogonalLoop=1;jettySize=auto;html=1;endArrow=none;startFill=0;shape=link;strokeColor=#000000;entryX=0.5;entryY=1;entryDx=0;entryDy=0;strokeWidth=2;" parent="1" source="ixsVfjGWsq4LzC2qJ3sS-33" target="ixsVfjGWsq4LzC2qJ3sS-38" edge="1">
          <mxGeometry relative="1" as="geometry">
            <mxPoint x="516" y="770" as="targetPoint" />
          </mxGeometry>
        </mxCell>
        <mxCell id="ixsVfjGWsq4LzC2qJ3sS-32" style="edgeStyle=orthogonalEdgeStyle;rounded=0;orthogonalLoop=1;jettySize=auto;html=1;entryX=0;entryY=0.5;entryDx=0;entryDy=0;strokeColor=#000000;endArrow=none;startFill=0;shape=link;strokeWidth=2;" parent="1" source="ixsVfjGWsq4LzC2qJ3sS-33" target="ixsVfjGWsq4LzC2qJ3sS-25" edge="1">
          <mxGeometry relative="1" as="geometry" />
        </mxCell>
        <mxCell id="ixsVfjGWsq4LzC2qJ3sS-33" value="&lt;span style=&quot;text-align: left;&quot;&gt;&lt;b&gt;&lt;font style=&quot;color: rgb(255, 255, 255); font-size: 30px;&quot;&gt;has&lt;/font&gt;&lt;/b&gt;&lt;/span&gt;" style="rhombus;whiteSpace=wrap;html=1;rounded=1;fillColor=#f0a30a;strokeColor=#BD7000;fontColor=#000000;" parent="1" vertex="1">
          <mxGeometry x="980" y="790" width="290" height="90" as="geometry" />
        </mxCell>
        <mxCell id="ixsVfjGWsq4LzC2qJ3sS-34" value="&lt;font style=&quot;font-size: 30px;&quot;&gt;&lt;b&gt;1&lt;/b&gt;&lt;/font&gt;" style="text;html=1;align=center;verticalAlign=middle;resizable=0;points=[];autosize=1;strokeColor=none;fillColor=none;rounded=1;" parent="1" vertex="1">
          <mxGeometry x="1260" y="775" width="40" height="50" as="geometry" />
        </mxCell>
        <mxCell id="ixsVfjGWsq4LzC2qJ3sS-35" value="&lt;span style=&quot;color: rgb(0, 0, 0); font-family: Helvetica; font-size: 30px; font-style: normal; font-variant-ligatures: normal; font-variant-caps: normal; letter-spacing: normal; orphans: 2; text-align: center; text-indent: 0px; text-transform: none; widows: 2; word-spacing: 0px; -webkit-text-stroke-width: 0px; white-space: nowrap; background-color: rgb(251, 251, 251); text-decoration-thickness: initial; text-decoration-style: initial; text-decoration-color: initial; float: none; display: inline !important;&quot;&gt;&lt;b&gt;1&lt;/b&gt;&lt;/span&gt;" style="text;whiteSpace=wrap;html=1;rounded=1;" parent="1" vertex="1">
          <mxGeometry x="950" y="775" width="50" height="60" as="geometry" />
        </mxCell>
        <mxCell id="ixsVfjGWsq4LzC2qJ3sS-36" style="edgeStyle=orthogonalEdgeStyle;rounded=0;orthogonalLoop=1;jettySize=auto;html=1;entryX=0.5;entryY=1;entryDx=0;entryDy=0;strokeColor=#23445D;endArrow=none;startFill=0;strokeWidth=2;" parent="1" source="ixsVfjGWsq4LzC2qJ3sS-38" target="ixsVfjGWsq4LzC2qJ3sS-30" edge="1">
          <mxGeometry relative="1" as="geometry" />
        </mxCell>
        <mxCell id="ixsVfjGWsq4LzC2qJ3sS-37" style="edgeStyle=orthogonalEdgeStyle;rounded=0;orthogonalLoop=1;jettySize=auto;html=1;entryX=0.5;entryY=1;entryDx=0;entryDy=0;strokeColor=#23445D;endArrow=none;startFill=0;strokeWidth=2;" parent="1" source="ixsVfjGWsq4LzC2qJ3sS-38" target="ixsVfjGWsq4LzC2qJ3sS-27" edge="1">
          <mxGeometry relative="1" as="geometry">
            <Array as="points">
              <mxPoint x="650" y="650" />
              <mxPoint x="550" y="650" />
            </Array>
          </mxGeometry>
        </mxCell>
        <mxCell id="ixsVfjGWsq4LzC2qJ3sS-38" value="&lt;b&gt;&lt;font style=&quot;font-size: 30px; color: rgb(255, 255, 255);&quot;&gt;UserAccount&lt;/font&gt;&lt;/b&gt;" style="rounded=1;whiteSpace=wrap;html=1;fillColor=light-dark(#BC124C,#1D293B);strokeColor=#FFFFFF;labelBackgroundColor=none;fontColor=#FFFFFF;" parent="1" vertex="1">
          <mxGeometry x="550" y="680" width="200" height="80" as="geometry" />
        </mxCell>
        <mxCell id="ixsVfjGWsq4LzC2qJ3sS-39" style="edgeStyle=orthogonalEdgeStyle;rounded=0;orthogonalLoop=1;jettySize=auto;html=1;entryX=0.64;entryY=0.975;entryDx=0;entryDy=0;entryPerimeter=0;strokeColor=#23445D;endArrow=none;startFill=0;strokeWidth=2;" parent="1" source="ixsVfjGWsq4LzC2qJ3sS-38" target="ixsVfjGWsq4LzC2qJ3sS-28" edge="1">
          <mxGeometry relative="1" as="geometry" />
        </mxCell>
        <mxCell id="ixsVfjGWsq4LzC2qJ3sS-40" style="edgeStyle=orthogonalEdgeStyle;rounded=0;orthogonalLoop=1;jettySize=auto;html=1;entryX=0.5;entryY=1;entryDx=0;entryDy=0;strokeColor=#23445D;endArrow=none;startFill=0;strokeWidth=2;" parent="1" source="ixsVfjGWsq4LzC2qJ3sS-38" target="ixsVfjGWsq4LzC2qJ3sS-29" edge="1">
          <mxGeometry relative="1" as="geometry" />
        </mxCell>
        <mxCell id="ixsVfjGWsq4LzC2qJ3sS-41" style="rounded=0;orthogonalLoop=1;jettySize=auto;html=1;entryX=0.5;entryY=0;entryDx=0;entryDy=0;strokeColor=#23445D;endArrow=none;startFill=0;strokeWidth=2;" parent="1" target="ixsVfjGWsq4LzC2qJ3sS-55" edge="1">
          <mxGeometry relative="1" as="geometry">
            <mxPoint x="1440" y="1250" as="sourcePoint" />
          </mxGeometry>
        </mxCell>
        <mxCell id="ixsVfjGWsq4LzC2qJ3sS-42" style="rounded=0;orthogonalLoop=1;jettySize=auto;html=1;entryX=0.5;entryY=0;entryDx=0;entryDy=0;strokeColor=#23445D;endArrow=none;startFill=0;strokeWidth=2;" parent="1" source="ixsVfjGWsq4LzC2qJ3sS-44" target="ixsVfjGWsq4LzC2qJ3sS-72" edge="1">
          <mxGeometry relative="1" as="geometry" />
        </mxCell>
        <mxCell id="ixsVfjGWsq4LzC2qJ3sS-43" style="rounded=0;orthogonalLoop=1;jettySize=auto;html=1;entryX=0;entryY=0.5;entryDx=0;entryDy=0;strokeColor=#23445D;endArrow=none;startFill=0;strokeWidth=2;" parent="1" source="ixsVfjGWsq4LzC2qJ3sS-44" target="ixsVfjGWsq4LzC2qJ3sS-86" edge="1">
          <mxGeometry relative="1" as="geometry" />
        </mxCell>
        <mxCell id="ixsVfjGWsq4LzC2qJ3sS-44" value="&lt;b&gt;&lt;font style=&quot;font-size: 50px;&quot;&gt;d&lt;/font&gt;&lt;/b&gt;" style="ellipse;whiteSpace=wrap;html=1;aspect=fixed;rotation=0;fillColor=#b1ddf0;strokeColor=#10739e;" parent="1" vertex="1">
          <mxGeometry x="1575.5600000000004" y="1080" width="100" height="100" as="geometry" />
        </mxCell>
        <mxCell id="ixsVfjGWsq4LzC2qJ3sS-46" value="&lt;b&gt;&lt;font style=&quot;color: rgb(255, 255, 255); font-size: 20px;&quot;&gt;Gpa&lt;/font&gt;&lt;/b&gt;" style="ellipse;whiteSpace=wrap;html=1;align=center;fillColor=light-dark(#182E3E,#1D293B);rotation=0;rounded=1;" parent="1" vertex="1">
          <mxGeometry x="719.9999999999991" y="1140" width="100" height="40" as="geometry" />
        </mxCell>
        <mxCell id="ixsVfjGWsq4LzC2qJ3sS-48" style="rounded=1;orthogonalLoop=1;jettySize=auto;html=1;entryX=0.5;entryY=1;entryDx=0;entryDy=0;endArrow=none;startFill=0;exitX=0.5;exitY=0;exitDx=0;exitDy=0;strokeWidth=2;edgeStyle=orthogonalEdgeStyle;" parent="1" source="ixsVfjGWsq4LzC2qJ3sS-55" target="ixsVfjGWsq4LzC2qJ3sS-57" edge="1">
          <mxGeometry relative="1" as="geometry">
            <mxPoint x="947.1599999999999" y="1497.28" as="sourcePoint" />
            <Array as="points">
              <mxPoint x="981" y="1190" />
              <mxPoint x="1079" y="1190" />
            </Array>
          </mxGeometry>
        </mxCell>
        <mxCell id="ixsVfjGWsq4LzC2qJ3sS-49" style="rounded=1;orthogonalLoop=1;jettySize=auto;html=1;entryX=0.5;entryY=1;entryDx=0;entryDy=0;exitX=0.5;exitY=0;exitDx=0;exitDy=0;endArrow=none;startFill=0;strokeWidth=2;edgeStyle=orthogonalEdgeStyle;" parent="1" source="ixsVfjGWsq4LzC2qJ3sS-55" target="ixsVfjGWsq4LzC2qJ3sS-58" edge="1">
          <mxGeometry relative="1" as="geometry">
            <Array as="points">
              <mxPoint x="981" y="1330" />
              <mxPoint x="1079" y="1330" />
            </Array>
          </mxGeometry>
        </mxCell>
        <mxCell id="ixsVfjGWsq4LzC2qJ3sS-50" style="rounded=1;orthogonalLoop=1;jettySize=auto;html=1;exitX=0.5;exitY=0;exitDx=0;exitDy=0;endArrow=none;startFill=0;strokeWidth=2;edgeStyle=orthogonalEdgeStyle;entryX=0.596;entryY=0.958;entryDx=0;entryDy=0;entryPerimeter=0;" parent="1" source="ixsVfjGWsq4LzC2qJ3sS-55" target="ixsVfjGWsq4LzC2qJ3sS-59" edge="1">
          <mxGeometry relative="1" as="geometry">
            <Array as="points">
              <mxPoint x="981" y="1360" />
              <mxPoint x="1220" y="1360" />
              <mxPoint x="1220" y="1209" />
            </Array>
          </mxGeometry>
        </mxCell>
        <mxCell id="ixsVfjGWsq4LzC2qJ3sS-51" style="rounded=0;orthogonalLoop=1;jettySize=auto;html=1;strokeColor=#23445D;endArrow=none;startFill=0;strokeWidth=2;edgeStyle=orthogonalEdgeStyle;" parent="1" source="ixsVfjGWsq4LzC2qJ3sS-55" target="ixsVfjGWsq4LzC2qJ3sS-61" edge="1">
          <mxGeometry relative="1" as="geometry">
            <Array as="points">
              <mxPoint x="981" y="1180" />
              <mxPoint x="862" y="1180" />
            </Array>
          </mxGeometry>
        </mxCell>
        <mxCell id="ixsVfjGWsq4LzC2qJ3sS-52" style="edgeStyle=orthogonalEdgeStyle;rounded=0;orthogonalLoop=1;jettySize=auto;html=1;entryX=0.5;entryY=1;entryDx=0;entryDy=0;strokeColor=#23445D;endArrow=none;startFill=0;strokeWidth=2;" parent="1" source="ixsVfjGWsq4LzC2qJ3sS-55" target="ixsVfjGWsq4LzC2qJ3sS-60" edge="1">
          <mxGeometry relative="1" as="geometry">
            <Array as="points">
              <mxPoint x="981" y="1470" />
              <mxPoint x="790" y="1470" />
            </Array>
          </mxGeometry>
        </mxCell>
        <mxCell id="ixsVfjGWsq4LzC2qJ3sS-53" style="rounded=0;orthogonalLoop=1;jettySize=auto;html=1;entryX=1;entryY=0.5;entryDx=0;entryDy=0;strokeColor=#23445D;endArrow=none;startFill=0;strokeWidth=2;exitX=0.098;exitY=0.967;exitDx=0;exitDy=0;exitPerimeter=0;shape=link;" parent="1" source="ixsVfjGWsq4LzC2qJ3sS-55" target="ixsVfjGWsq4LzC2qJ3sS-173" edge="1">
          <mxGeometry relative="1" as="geometry" />
        </mxCell>
        <mxCell id="ixsVfjGWsq4LzC2qJ3sS-54" style="edgeStyle=orthogonalEdgeStyle;rounded=0;orthogonalLoop=1;jettySize=auto;html=1;entryX=0;entryY=0.5;entryDx=0;entryDy=0;strokeColor=#000000;endArrow=none;startFill=0;strokeWidth=2;shape=link;exitX=0;exitY=0.75;exitDx=0;exitDy=0;" parent="1" source="ixsVfjGWsq4LzC2qJ3sS-55" target="ixsVfjGWsq4LzC2qJ3sS-222" edge="1">
          <mxGeometry relative="1" as="geometry">
            <Array as="points">
              <mxPoint x="420" y="1620" />
              <mxPoint x="420" y="2945" />
            </Array>
          </mxGeometry>
        </mxCell>
        <mxCell id="ixsVfjGWsq4LzC2qJ3sS-289" style="edgeStyle=orthogonalEdgeStyle;rounded=0;orthogonalLoop=1;jettySize=auto;html=1;exitX=0;exitY=0.25;exitDx=0;exitDy=0;entryX=0;entryY=0.5;entryDx=0;entryDy=0;shape=link;strokeWidth=2;" parent="1" source="ixsVfjGWsq4LzC2qJ3sS-55" target="ixsVfjGWsq4LzC2qJ3sS-280" edge="1">
          <mxGeometry relative="1" as="geometry">
            <Array as="points">
              <mxPoint x="190" y="1580" />
              <mxPoint x="190" y="185" />
            </Array>
          </mxGeometry>
        </mxCell>
        <mxCell id="ixsVfjGWsq4LzC2qJ3sS-55" value="&lt;b&gt;&lt;font style=&quot;color: rgb(255, 255, 255); font-size: 30px;&quot;&gt;Student&lt;/font&gt;&lt;/b&gt;" style="html=1;dashed=0;whiteSpace=wrap;fillColor=light-dark(#bc124c, #1d293b);strokeColor=#6c8ebf;rounded=1;" parent="1" vertex="1">
          <mxGeometry x="902.1599999999999" y="1560" width="157.84" height="80" as="geometry" />
        </mxCell>
        <mxCell id="ixsVfjGWsq4LzC2qJ3sS-56" style="rounded=1;orthogonalLoop=1;jettySize=auto;html=1;entryX=0.5;entryY=1;entryDx=0;entryDy=0;exitX=0.5;exitY=0;exitDx=0;exitDy=0;endArrow=none;startFill=0;strokeWidth=2;edgeStyle=orthogonalEdgeStyle;" parent="1" source="ixsVfjGWsq4LzC2qJ3sS-55" target="ixsVfjGWsq4LzC2qJ3sS-46" edge="1">
          <mxGeometry relative="1" as="geometry">
            <Array as="points">
              <mxPoint x="981" y="1240" />
              <mxPoint x="764" y="1240" />
              <mxPoint x="764" y="1180" />
            </Array>
          </mxGeometry>
        </mxCell>
        <mxCell id="ixsVfjGWsq4LzC2qJ3sS-57" value="&lt;b&gt;&lt;font style=&quot;color: rgb(255, 255, 255); font-size: 20px;&quot;&gt;MilitaryStatus&lt;/font&gt;&lt;/b&gt;" style="ellipse;whiteSpace=wrap;html=1;align=center;fillColor=light-dark(#182E3E,#1D293B);rotation=0;rounded=1;" parent="1" vertex="1">
          <mxGeometry x="997.8000000000002" y="1080" width="163.06" height="45" as="geometry" />
        </mxCell>
        <mxCell id="ixsVfjGWsq4LzC2qJ3sS-58" value="&lt;b&gt;&lt;font style=&quot;color: rgb(255, 255, 255); font-size: 20px;&quot;&gt;Faculty&lt;/font&gt;&lt;/b&gt;" style="ellipse;whiteSpace=wrap;html=1;align=center;fillColor=light-dark(#182E3E,#1D293B);rotation=0;rounded=1;" parent="1" vertex="1">
          <mxGeometry x="1029.33" y="1234.57" width="100" height="40" as="geometry" />
        </mxCell>
        <mxCell id="ixsVfjGWsq4LzC2qJ3sS-59" value="&lt;font style=&quot;font-size: 20px;&quot; color=&quot;#ffffff&quot;&gt;&lt;b style=&quot;&quot;&gt;GraduationYear&lt;/b&gt;&lt;/font&gt;" style="ellipse;whiteSpace=wrap;html=1;align=center;fillColor=light-dark(#182E3E,#1D293B);rotation=0;rounded=1;" parent="1" vertex="1">
          <mxGeometry x="1111.83" y="1148.54" width="188.17" height="62.93" as="geometry" />
        </mxCell>
        <mxCell id="ixsVfjGWsq4LzC2qJ3sS-60" value="&lt;b&gt;&lt;font style=&quot;color: rgb(255, 255, 255); font-size: 20px;&quot;&gt;EnrollmentDate&lt;/font&gt;&lt;/b&gt;" style="ellipse;whiteSpace=wrap;html=1;align=center;fillColor=light-dark(#182E3E,#1D293B);rotation=0;rounded=1;" parent="1" vertex="1">
          <mxGeometry x="700" y="1380" width="170.33" height="50" as="geometry" />
        </mxCell>
        <mxCell id="ixsVfjGWsq4LzC2qJ3sS-61" value="&lt;b&gt;&lt;font style=&quot;color: rgb(255, 255, 255); font-size: 20px;&quot;&gt;MaritalStatus&lt;/font&gt;&lt;/b&gt;" style="ellipse;whiteSpace=wrap;html=1;align=center;fillColor=light-dark(#182E3E,#1D293B);rotation=0;rounded=1;" parent="1" vertex="1">
          <mxGeometry x="780" y="1080" width="163.06" height="45" as="geometry" />
        </mxCell>
        <mxCell id="ixsVfjGWsq4LzC2qJ3sS-62" value="&lt;font style=&quot;font-size: 20px;&quot;&gt;&lt;b&gt;StudentID&lt;/b&gt;&lt;/font&gt;" style="ellipse;whiteSpace=wrap;html=1;align=center;fontStyle=4;strokeColor=#FFFFFF;fontColor=#FFFFFF;fillColor=#182E3E;" parent="1" vertex="1">
          <mxGeometry x="916.0799999999999" y="1010" width="130" height="50" as="geometry" />
        </mxCell>
        <mxCell id="ixsVfjGWsq4LzC2qJ3sS-63" style="rounded=0;orthogonalLoop=1;jettySize=auto;html=1;strokeColor=#23445D;endArrow=none;startFill=0;strokeWidth=2;entryX=0.5;entryY=1;entryDx=0;entryDy=0;exitX=0.5;exitY=0;exitDx=0;exitDy=0;" parent="1" source="ixsVfjGWsq4LzC2qJ3sS-55" target="ixsVfjGWsq4LzC2qJ3sS-62" edge="1">
          <mxGeometry relative="1" as="geometry">
            <mxPoint x="980" y="1550" as="sourcePoint" />
            <mxPoint x="981" y="1240" as="targetPoint" />
          </mxGeometry>
        </mxCell>
        <mxCell id="ixsVfjGWsq4LzC2qJ3sS-64" style="rounded=1;orthogonalLoop=1;jettySize=auto;html=1;exitX=0.5;exitY=0;exitDx=0;exitDy=0;endArrow=none;startFill=0;entryX=0.5;entryY=1;entryDx=0;entryDy=0;strokeWidth=2;edgeStyle=orthogonalEdgeStyle;" parent="1" source="ixsVfjGWsq4LzC2qJ3sS-72" target="ixsVfjGWsq4LzC2qJ3sS-66" edge="1">
          <mxGeometry relative="1" as="geometry">
            <mxPoint x="1612.5299999999997" y="1747.5" as="sourcePoint" />
            <mxPoint x="1432.5299999999997" y="1653.75" as="targetPoint" />
          </mxGeometry>
        </mxCell>
        <mxCell id="ixsVfjGWsq4LzC2qJ3sS-65" style="rounded=1;orthogonalLoop=1;jettySize=auto;html=1;entryX=0.5;entryY=1;entryDx=0;entryDy=0;exitX=0.5;exitY=0;exitDx=0;exitDy=0;endArrow=none;startFill=0;strokeWidth=2;edgeStyle=orthogonalEdgeStyle;" parent="1" source="ixsVfjGWsq4LzC2qJ3sS-72" target="ixsVfjGWsq4LzC2qJ3sS-67" edge="1">
          <mxGeometry relative="1" as="geometry">
            <mxPoint x="1642.5299999999997" y="1826.88" as="sourcePoint" />
            <mxPoint x="1562.5299999999997" y="1644.3799999999999" as="targetPoint" />
          </mxGeometry>
        </mxCell>
        <mxCell id="ixsVfjGWsq4LzC2qJ3sS-66" value="&lt;b&gt;&lt;font style=&quot;color: rgb(255, 255, 255); font-size: 20px;&quot;&gt;Salary&lt;/font&gt;&lt;/b&gt;" style="ellipse;whiteSpace=wrap;html=1;align=center;fillColor=light-dark(#182E3E,#1D293B);rotation=0;rounded=1;" parent="1" vertex="1">
          <mxGeometry x="1372.5299999999997" y="1608.75" width="100" height="40" as="geometry" />
        </mxCell>
        <mxCell id="ixsVfjGWsq4LzC2qJ3sS-67" value="&lt;b&gt;&lt;font style=&quot;color: rgb(255, 255, 255); font-size: 20px;&quot;&gt;HireDate&lt;/font&gt;&lt;/b&gt;" style="ellipse;whiteSpace=wrap;html=1;align=center;fillColor=light-dark(#182E3E,#1D293B);rotation=0;rounded=1;" parent="1" vertex="1">
          <mxGeometry x="1640" y="1460" width="110" height="40" as="geometry" />
        </mxCell>
        <mxCell id="ixsVfjGWsq4LzC2qJ3sS-68" value="&lt;b&gt;&lt;font style=&quot;color: rgb(255, 255, 255); font-size: 20px;&quot;&gt;ExperienceYears&lt;/font&gt;&lt;/b&gt;" style="ellipse;whiteSpace=wrap;html=1;align=center;fillColor=light-dark(#182E3E,#1D293B);rotation=30;rounded=1;" parent="1" vertex="1">
          <mxGeometry x="1693.5999999999995" y="1543.42" width="185" height="60" as="geometry" />
        </mxCell>
        <mxCell id="ixsVfjGWsq4LzC2qJ3sS-69" style="rounded=1;orthogonalLoop=1;jettySize=auto;html=1;entryX=0.423;entryY=0.894;entryDx=0;entryDy=0;entryPerimeter=0;endArrow=none;startFill=0;exitX=0.5;exitY=0;exitDx=0;exitDy=0;strokeWidth=2;edgeStyle=orthogonalEdgeStyle;" parent="1" source="ixsVfjGWsq4LzC2qJ3sS-72" target="ixsVfjGWsq4LzC2qJ3sS-68" edge="1">
          <mxGeometry relative="1" as="geometry">
            <mxPoint x="1647.2104370853021" y="1826.88" as="sourcePoint" />
          </mxGeometry>
        </mxCell>
        <mxCell id="ixsVfjGWsq4LzC2qJ3sS-70" style="edgeStyle=orthogonalEdgeStyle;rounded=0;orthogonalLoop=1;jettySize=auto;html=1;entryX=0.5;entryY=1;entryDx=0;entryDy=0;strokeColor=#23445D;endArrow=none;startFill=0;strokeWidth=2;" parent="1" source="ixsVfjGWsq4LzC2qJ3sS-72" target="ixsVfjGWsq4LzC2qJ3sS-73" edge="1">
          <mxGeometry relative="1" as="geometry" />
        </mxCell>
        <mxCell id="ixsVfjGWsq4LzC2qJ3sS-71" style="rounded=0;orthogonalLoop=1;jettySize=auto;html=1;entryX=1;entryY=0.5;entryDx=0;entryDy=0;strokeColor=#23445D;endArrow=none;startFill=0;strokeWidth=2;exitX=0.5;exitY=1;exitDx=0;exitDy=0;" parent="1" source="ixsVfjGWsq4LzC2qJ3sS-72" target="ixsVfjGWsq4LzC2qJ3sS-102" edge="1">
          <mxGeometry relative="1" as="geometry" />
        </mxCell>
        <mxCell id="ixsVfjGWsq4LzC2qJ3sS-72" value="&lt;b style=&quot;color: rgb(255, 255, 255);&quot;&gt;&lt;font style=&quot;font-size: 30px; color: rgb(255, 255, 255);&quot;&gt;Manager&lt;/font&gt;&lt;/b&gt;" style="html=1;dashed=0;whiteSpace=wrap;fillColor=light-dark(#bc124c, #1d293b);strokeColor=#6c8ebf;rounded=1;" parent="1" vertex="1">
          <mxGeometry x="1548.0900000000001" y="1777.5" width="157.84" height="80" as="geometry" />
        </mxCell>
        <mxCell id="ixsVfjGWsq4LzC2qJ3sS-73" value="&lt;font style=&quot;font-size: 20px;&quot;&gt;&lt;b&gt;ManagerID&lt;/b&gt;&lt;/font&gt;" style="ellipse;whiteSpace=wrap;html=1;align=center;fontStyle=4;strokeColor=#FFFFFF;fontColor=#FFFFFF;fillColor=#182E3E;" parent="1" vertex="1">
          <mxGeometry x="1482.5299999999997" y="1473.75" width="120" height="50" as="geometry" />
        </mxCell>
        <mxCell id="ixsVfjGWsq4LzC2qJ3sS-74" value="" style="rounded=0;orthogonalLoop=1;jettySize=auto;html=1;strokeColor=#23445D;endArrow=none;startFill=0;strokeWidth=2;" parent="1" source="ixsVfjGWsq4LzC2qJ3sS-44" edge="1">
          <mxGeometry relative="1" as="geometry">
            <mxPoint x="1584" y="1158" as="sourcePoint" />
            <mxPoint x="1440" y="1250" as="targetPoint" />
          </mxGeometry>
        </mxCell>
        <mxCell id="ixsVfjGWsq4LzC2qJ3sS-75" value="&lt;font style=&quot;color: rgb(0, 0, 0); font-size: 50px;&quot;&gt;U&lt;/font&gt;" style="text;html=1;align=center;verticalAlign=middle;whiteSpace=wrap;rounded=0;fontColor=#FFFFFF;rotation=60;" parent="1" vertex="1">
          <mxGeometry x="1400" y="1239.5700000000002" width="60" height="30" as="geometry" />
        </mxCell>
        <mxCell id="ixsVfjGWsq4LzC2qJ3sS-76" value="&lt;font style=&quot;color: rgb(0, 0, 0); font-size: 50px;&quot;&gt;U&lt;/font&gt;" style="text;html=1;align=center;verticalAlign=middle;whiteSpace=wrap;rounded=0;fontColor=#FFFFFF;rotation=0;" parent="1" vertex="1">
          <mxGeometry x="1597.0100000000002" y="1269.5700000000002" width="60" height="30" as="geometry" />
        </mxCell>
        <mxCell id="ixsVfjGWsq4LzC2qJ3sS-77" style="rounded=1;orthogonalLoop=1;jettySize=auto;html=1;exitX=0.5;exitY=0;exitDx=0;exitDy=0;endArrow=none;startFill=0;entryX=0.5;entryY=1;entryDx=0;entryDy=0;strokeWidth=2;" parent="1" source="ixsVfjGWsq4LzC2qJ3sS-86" target="ixsVfjGWsq4LzC2qJ3sS-79" edge="1">
          <mxGeometry relative="1" as="geometry">
            <mxPoint x="2230" y="1530" as="sourcePoint" />
            <mxPoint x="2050" y="1436.25" as="targetPoint" />
          </mxGeometry>
        </mxCell>
        <mxCell id="ixsVfjGWsq4LzC2qJ3sS-78" style="rounded=1;orthogonalLoop=1;jettySize=auto;html=1;entryX=0.5;entryY=1;entryDx=0;entryDy=0;exitX=0.5;exitY=0;exitDx=0;exitDy=0;endArrow=none;startFill=0;strokeWidth=2;" parent="1" source="ixsVfjGWsq4LzC2qJ3sS-86" target="ixsVfjGWsq4LzC2qJ3sS-80" edge="1">
          <mxGeometry relative="1" as="geometry">
            <mxPoint x="2260" y="1609.38" as="sourcePoint" />
            <mxPoint x="2180" y="1426.8799999999999" as="targetPoint" />
          </mxGeometry>
        </mxCell>
        <mxCell id="ixsVfjGWsq4LzC2qJ3sS-79" value="&lt;b&gt;&lt;font style=&quot;color: rgb(255, 255, 255); font-size: 20px;&quot;&gt;Salary&lt;/font&gt;&lt;/b&gt;" style="ellipse;whiteSpace=wrap;html=1;align=center;fillColor=light-dark(#182E3E,#1D293B);rotation=-5;rounded=1;" parent="1" vertex="1">
          <mxGeometry x="2009.98" y="1449.47" width="87.92" height="40" as="geometry" />
        </mxCell>
        <mxCell id="ixsVfjGWsq4LzC2qJ3sS-80" value="&lt;b&gt;&lt;font style=&quot;color: rgb(255, 255, 255); font-size: 20px;&quot;&gt;HireDate&lt;/font&gt;&lt;/b&gt;" style="ellipse;whiteSpace=wrap;html=1;align=center;fillColor=light-dark(#182E3E,#1D293B);rotation=40;rounded=1;" parent="1" vertex="1">
          <mxGeometry x="2110" y="1440" width="100" height="40" as="geometry" />
        </mxCell>
        <mxCell id="ixsVfjGWsq4LzC2qJ3sS-81" value="&lt;b&gt;&lt;font style=&quot;color: rgb(255, 255, 255); font-size: 20px;&quot;&gt;ExperienceYears&lt;/font&gt;&lt;/b&gt;" style="ellipse;whiteSpace=wrap;html=1;align=center;fillColor=light-dark(#182E3E,#1D293B);rotation=60;rounded=1;" parent="1" vertex="1">
          <mxGeometry x="2220" y="1527.6" width="185.02" height="59.57" as="geometry" />
        </mxCell>
        <mxCell id="ixsVfjGWsq4LzC2qJ3sS-82" style="rounded=0;orthogonalLoop=1;jettySize=auto;html=1;entryX=0.5;entryY=1;entryDx=0;entryDy=0;strokeColor=#23445D;endArrow=none;startFill=0;strokeWidth=2;exitX=0.5;exitY=0;exitDx=0;exitDy=0;" parent="1" source="ixsVfjGWsq4LzC2qJ3sS-86" target="ixsVfjGWsq4LzC2qJ3sS-87" edge="1">
          <mxGeometry relative="1" as="geometry" />
        </mxCell>
        <mxCell id="ixsVfjGWsq4LzC2qJ3sS-83" style="rounded=0;orthogonalLoop=1;jettySize=auto;html=1;strokeColor=#23445D;strokeWidth=2;endArrow=none;startFill=0;exitX=0.5;exitY=0;exitDx=0;exitDy=0;" parent="1" source="ixsVfjGWsq4LzC2qJ3sS-86" target="ixsVfjGWsq4LzC2qJ3sS-81" edge="1">
          <mxGeometry relative="1" as="geometry" />
        </mxCell>
        <mxCell id="ixsVfjGWsq4LzC2qJ3sS-84" style="rounded=0;orthogonalLoop=1;jettySize=auto;html=1;entryX=0;entryY=0.5;entryDx=0;entryDy=0;strokeColor=#23445D;endArrow=none;startFill=0;shape=link;strokeWidth=2;exitX=1;exitY=0.5;exitDx=0;exitDy=0;" parent="1" source="ixsVfjGWsq4LzC2qJ3sS-86" target="ixsVfjGWsq4LzC2qJ3sS-141" edge="1">
          <mxGeometry relative="1" as="geometry">
            <mxPoint x="2230" y="1680" as="sourcePoint" />
          </mxGeometry>
        </mxCell>
        <mxCell id="ixsVfjGWsq4LzC2qJ3sS-86" value="&lt;b style=&quot;color: rgb(255, 255, 255);&quot;&gt;&lt;font style=&quot;font-size: 30px; color: rgb(255, 255, 255);&quot;&gt;Instructor&lt;/font&gt;&lt;/b&gt;" style="html=1;dashed=0;whiteSpace=wrap;fillColor=light-dark(#bc124c, #1d293b);strokeColor=#6c8ebf;rounded=1;rotation=30;" parent="1" vertex="1">
          <mxGeometry x="1997.92" y="1616.5" width="157.84" height="80" as="geometry" />
        </mxCell>
        <mxCell id="ixsVfjGWsq4LzC2qJ3sS-87" value="&lt;font style=&quot;font-size: 20px;&quot;&gt;&lt;b&gt;InstractorID&lt;/b&gt;&lt;/font&gt;" style="ellipse;whiteSpace=wrap;html=1;align=center;fontStyle=4;strokeColor=#FFFFFF;fontColor=#FFFFFF;fillColor=#182E3E;rotation=15;" parent="1" vertex="1">
          <mxGeometry x="2050.35" y="1361.06" width="140.76" height="50" as="geometry" />
        </mxCell>
        <mxCell id="ixsVfjGWsq4LzC2qJ3sS-88" value="&lt;font style=&quot;color: rgb(0, 0, 0); font-size: 50px;&quot;&gt;U&lt;/font&gt;" style="text;html=1;align=center;verticalAlign=middle;whiteSpace=wrap;rounded=0;fontColor=#FFFFFF;rotation=-45;" parent="1" vertex="1">
          <mxGeometry x="1748.0499999999993" y="1320" width="76.1" height="30" as="geometry" />
        </mxCell>
        <mxCell id="ixsVfjGWsq4LzC2qJ3sS-89" style="rounded=1;orthogonalLoop=1;jettySize=auto;html=1;entryX=0.5;entryY=1;entryDx=0;entryDy=0;exitX=0.5;exitY=0;exitDx=0;exitDy=0;endArrow=none;startFill=0;edgeStyle=orthogonalEdgeStyle;strokeWidth=2;" parent="1" target="ixsVfjGWsq4LzC2qJ3sS-93" edge="1">
          <mxGeometry relative="1" as="geometry">
            <mxPoint x="1186.5699999999997" y="2283.75" as="sourcePoint" />
          </mxGeometry>
        </mxCell>
        <mxCell id="ixsVfjGWsq4LzC2qJ3sS-90" style="rounded=1;orthogonalLoop=1;jettySize=auto;html=1;entryX=0.5;entryY=1;entryDx=0;entryDy=0;exitX=0.5;exitY=0;exitDx=0;exitDy=0;endArrow=none;startFill=0;edgeStyle=orthogonalEdgeStyle;strokeWidth=2;" parent="1" target="ixsVfjGWsq4LzC2qJ3sS-95" edge="1">
          <mxGeometry relative="1" as="geometry">
            <mxPoint x="1186.5699999999997" y="2283.75" as="sourcePoint" />
            <Array as="points">
              <mxPoint x="1186.5699999999997" y="2158.75" />
              <mxPoint x="1091.5699999999997" y="2158.75" />
            </Array>
          </mxGeometry>
        </mxCell>
        <mxCell id="ixsVfjGWsq4LzC2qJ3sS-91" style="rounded=1;orthogonalLoop=1;jettySize=auto;html=1;endArrow=none;startFill=0;edgeStyle=orthogonalEdgeStyle;strokeWidth=2;" parent="1" target="ixsVfjGWsq4LzC2qJ3sS-98" edge="1">
          <mxGeometry relative="1" as="geometry">
            <mxPoint x="1186.5699999999997" y="2283.75" as="sourcePoint" />
            <Array as="points">
              <mxPoint x="1186.5699999999997" y="2248.75" />
              <mxPoint x="1046.5699999999997" y="2248.75" />
            </Array>
          </mxGeometry>
        </mxCell>
        <mxCell id="ixsVfjGWsq4LzC2qJ3sS-92" value="&lt;code data-end=&quot;189&quot; data-start=&quot;174&quot;&gt;&lt;b&gt;&lt;font face=&quot;Helvetica&quot; style=&quot;color: rgb(255, 255, 255); font-size: 20px;&quot;&gt;BranchName&lt;/font&gt;&lt;/b&gt;&lt;/code&gt;" style="ellipse;whiteSpace=wrap;html=1;align=center;fillColor=light-dark(#182E3E,#EDEDED);rotation=0;rounded=1;" parent="1" vertex="1">
          <mxGeometry x="1242.5" y="2062.5" width="147.5" height="40" as="geometry" />
        </mxCell>
        <mxCell id="ixsVfjGWsq4LzC2qJ3sS-93" value="&lt;code data-end=&quot;189&quot; data-start=&quot;174&quot;&gt;&lt;b&gt;&lt;font face=&quot;Helvetica&quot; style=&quot;color: rgb(255, 255, 255); font-size: 20px;&quot;&gt;BranchID&lt;/font&gt;&lt;/b&gt;&lt;/code&gt;" style="ellipse;whiteSpace=wrap;html=1;align=center;fillColor=light-dark(#182E3E,#EDEDED);rotation=0;rounded=1;" parent="1" vertex="1">
          <mxGeometry x="1126.5699999999997" y="2013.75" width="120" height="40" as="geometry" />
        </mxCell>
        <mxCell id="ixsVfjGWsq4LzC2qJ3sS-94" style="rounded=1;orthogonalLoop=1;jettySize=auto;html=1;entryX=0.5;entryY=1;entryDx=0;entryDy=0;exitX=0.449;exitY=0.048;exitDx=0;exitDy=0;endArrow=none;startFill=0;edgeStyle=orthogonalEdgeStyle;strokeWidth=2;exitPerimeter=0;" parent="1" source="ixsVfjGWsq4LzC2qJ3sS-100" target="ixsVfjGWsq4LzC2qJ3sS-92" edge="1">
          <mxGeometry relative="1" as="geometry">
            <mxPoint x="1329.8900000000003" y="2233.6899999999996" as="targetPoint" />
            <mxPoint x="1186.5699999999997" y="2283.75" as="sourcePoint" />
            <Array as="points">
              <mxPoint x="1186.5699999999997" y="2314.75" />
              <mxPoint x="1186.5699999999997" y="2148.75" />
              <mxPoint x="1316.5699999999997" y="2148.75" />
            </Array>
          </mxGeometry>
        </mxCell>
        <mxCell id="ixsVfjGWsq4LzC2qJ3sS-95" value="&lt;code data-end=&quot;189&quot; data-start=&quot;174&quot;&gt;&lt;b&gt;&lt;font face=&quot;Helvetica&quot; style=&quot;color: rgb(255, 255, 255); font-size: 20px;&quot;&gt;BranchAddress&lt;/font&gt;&lt;/b&gt;&lt;/code&gt;" style="ellipse;whiteSpace=wrap;html=1;align=center;fillColor=light-dark(#182E3E,#EDEDED);rotation=0;rounded=1;" parent="1" vertex="1">
          <mxGeometry x="1006.5699999999997" y="2078.75" width="170" height="40" as="geometry" />
        </mxCell>
        <mxCell id="ixsVfjGWsq4LzC2qJ3sS-96" value="&lt;font style=&quot;font-size: 20px;&quot; color=&quot;#ffffff&quot;&gt;&lt;b style=&quot;&quot;&gt;BranchPhone&lt;/b&gt;&lt;/font&gt;" style="ellipse;whiteSpace=wrap;html=1;align=center;fillColor=light-dark(#182E3E,#EDEDED);rotation=0;rounded=1;" parent="1" vertex="1">
          <mxGeometry x="1230.17" y="2158.75" width="154.07" height="40" as="geometry" />
        </mxCell>
        <mxCell id="ixsVfjGWsq4LzC2qJ3sS-97" style="rounded=1;orthogonalLoop=1;jettySize=auto;html=1;entryX=0.542;entryY=0.957;entryDx=0;entryDy=0;entryPerimeter=0;endArrow=none;startFill=0;exitX=0.5;exitY=0;exitDx=0;exitDy=0;edgeStyle=orthogonalEdgeStyle;strokeWidth=2;" parent="1" target="ixsVfjGWsq4LzC2qJ3sS-96" edge="1">
          <mxGeometry relative="1" as="geometry">
            <mxPoint x="1186.5699999999997" y="2283.75" as="sourcePoint" />
          </mxGeometry>
        </mxCell>
        <mxCell id="ixsVfjGWsq4LzC2qJ3sS-98" value="&lt;font style=&quot;font-size: 20px;&quot; color=&quot;#ffffff&quot;&gt;&lt;b style=&quot;&quot;&gt;BranchEmail&lt;/b&gt;&lt;/font&gt;" style="ellipse;whiteSpace=wrap;html=1;align=center;fillColor=light-dark(#182E3E,#EDEDED);rotation=0;rounded=1;" parent="1" vertex="1">
          <mxGeometry x="976.5699999999997" y="2168.75" width="150" height="40" as="geometry" />
        </mxCell>
        <mxCell id="ixsVfjGWsq4LzC2qJ3sS-99" style="rounded=0;orthogonalLoop=1;jettySize=auto;html=1;entryX=0.46;entryY=0.04;entryDx=0;entryDy=0;strokeColor=#23445D;endArrow=none;startFill=0;shape=link;exitX=0.5;exitY=1;exitDx=0;exitDy=0;entryPerimeter=0;" parent="1" source="ixsVfjGWsq4LzC2qJ3sS-100" target="ixsVfjGWsq4LzC2qJ3sS-235" edge="1">
          <mxGeometry relative="1" as="geometry">
            <mxPoint x="1127.5" y="2555.0000000000005" as="targetPoint" />
          </mxGeometry>
        </mxCell>
        <mxCell id="ixsVfjGWsq4LzC2qJ3sS-100" value="&lt;b style=&quot;color: rgb(255, 255, 255);&quot;&gt;&lt;font style=&quot;font-size: 30px; color: rgb(255, 255, 255);&quot;&gt;Branch&lt;/font&gt;&lt;/b&gt;" style="html=1;dashed=0;whiteSpace=wrap;fillColor=light-dark(#bc124c, #1d293b);strokeColor=#6c8ebf;rounded=1;" parent="1" vertex="1">
          <mxGeometry x="1126.5699999999997" y="2316.25" width="133.4" height="65" as="geometry" />
        </mxCell>
        <mxCell id="ixsVfjGWsq4LzC2qJ3sS-101" style="rounded=0;orthogonalLoop=1;jettySize=auto;html=1;exitX=0;exitY=0.5;exitDx=0;exitDy=0;entryX=1;entryY=0.5;entryDx=0;entryDy=0;strokeColor=#23445D;endArrow=none;startFill=0;strokeWidth=2;" parent="1" source="ixsVfjGWsq4LzC2qJ3sS-102" target="ixsVfjGWsq4LzC2qJ3sS-100" edge="1">
          <mxGeometry relative="1" as="geometry" />
        </mxCell>
        <mxCell id="ixsVfjGWsq4LzC2qJ3sS-102" value="&lt;span style=&quot;text-align: left;&quot;&gt;&lt;b&gt;&lt;font style=&quot;color: rgb(255, 255, 255); font-size: 30px;&quot;&gt;manage&lt;/font&gt;&lt;/b&gt;&lt;/span&gt;" style="rhombus;whiteSpace=wrap;html=1;rounded=1;fillColor=#f0a30a;strokeColor=#BD7000;fontColor=#000000;rotation=-45;" parent="1" vertex="1">
          <mxGeometry x="1378.1900000000005" y="2110" width="290" height="90" as="geometry" />
        </mxCell>
        <mxCell id="ixsVfjGWsq4LzC2qJ3sS-103" value="&lt;font style=&quot;color: rgb(0, 0, 0); font-size: 30px;&quot;&gt;&lt;b&gt;1&lt;/b&gt;&lt;/font&gt;" style="text;html=1;align=center;verticalAlign=middle;whiteSpace=wrap;rounded=0;fontColor=#FFFFFF;rotation=-45;" parent="1" vertex="1">
          <mxGeometry x="1372.5299999999997" y="2217.5" width="60" height="30" as="geometry" />
        </mxCell>
        <mxCell id="ixsVfjGWsq4LzC2qJ3sS-104" value="&lt;font style=&quot;color: rgb(0, 0, 0); font-size: 30px;&quot;&gt;&lt;b&gt;1&lt;/b&gt;&lt;/font&gt;" style="text;html=1;align=center;verticalAlign=middle;whiteSpace=wrap;rounded=0;fontColor=#FFFFFF;rotation=-45;" parent="1" vertex="1">
          <mxGeometry x="1560" y="2015" width="60" height="30" as="geometry" />
        </mxCell>
        <mxCell id="ixsVfjGWsq4LzC2qJ3sS-105" value="&lt;code data-end=&quot;189&quot; data-start=&quot;174&quot;&gt;&lt;b&gt;&lt;font face=&quot;Helvetica&quot; style=&quot;color: rgb(255, 255, 255); font-size: 20px;&quot;&gt;IntakeID&lt;/font&gt;&lt;/b&gt;&lt;/code&gt;" style="ellipse;whiteSpace=wrap;html=1;align=center;fillColor=light-dark(#182E3E,#EDEDED);rotation=0;rounded=1;" parent="1" vertex="1">
          <mxGeometry x="630.46" y="2309.38" width="120" height="40" as="geometry" />
        </mxCell>
        <mxCell id="ixsVfjGWsq4LzC2qJ3sS-106" value="&lt;code data-end=&quot;189&quot; data-start=&quot;174&quot;&gt;&lt;b&gt;&lt;font face=&quot;Helvetica&quot; style=&quot;color: rgb(255, 255, 255); font-size: 20px;&quot;&gt;StartDate&lt;/font&gt;&lt;/b&gt;&lt;/code&gt;" style="ellipse;whiteSpace=wrap;html=1;align=center;fillColor=light-dark(#182E3E,#EDEDED);rotation=0;rounded=1;" parent="1" vertex="1">
          <mxGeometry x="533.7700000000004" y="2401.88" width="120" height="40" as="geometry" />
        </mxCell>
        <mxCell id="ixsVfjGWsq4LzC2qJ3sS-107" value="&lt;code data-end=&quot;189&quot; data-start=&quot;174&quot;&gt;&lt;b&gt;&lt;font face=&quot;Helvetica&quot; style=&quot;color: rgb(255, 255, 255); font-size: 20px;&quot;&gt;EndDate&lt;/font&gt;&lt;/b&gt;&lt;/code&gt;" style="ellipse;whiteSpace=wrap;html=1;align=center;fillColor=light-dark(#182E3E,#EDEDED);rotation=0;rounded=1;" parent="1" vertex="1">
          <mxGeometry x="750.3299999999999" y="2341.88" width="120" height="40" as="geometry" />
        </mxCell>
        <mxCell id="ixsVfjGWsq4LzC2qJ3sS-108" value="&lt;code data-end=&quot;189&quot; data-start=&quot;174&quot;&gt;&lt;b&gt;&lt;font face=&quot;Helvetica&quot; style=&quot;color: rgb(255, 255, 255); font-size: 20px;&quot;&gt;Year&lt;/font&gt;&lt;/b&gt;&lt;/code&gt;" style="ellipse;whiteSpace=wrap;html=1;align=center;fillColor=light-dark(#182E3E,#EDEDED);rotation=0;rounded=1;" parent="1" vertex="1">
          <mxGeometry x="733.7700000000004" y="2408.75" width="120" height="40" as="geometry" />
        </mxCell>
        <mxCell id="ixsVfjGWsq4LzC2qJ3sS-109" style="edgeStyle=orthogonalEdgeStyle;rounded=0;orthogonalLoop=1;jettySize=auto;html=1;entryX=0.5;entryY=1;entryDx=0;entryDy=0;strokeColor=#23445D;endArrow=none;startFill=0;strokeWidth=2;" parent="1" source="ixsVfjGWsq4LzC2qJ3sS-113" target="ixsVfjGWsq4LzC2qJ3sS-105" edge="1">
          <mxGeometry relative="1" as="geometry" />
        </mxCell>
        <mxCell id="ixsVfjGWsq4LzC2qJ3sS-110" style="edgeStyle=orthogonalEdgeStyle;rounded=0;orthogonalLoop=1;jettySize=auto;html=1;entryX=0.5;entryY=1;entryDx=0;entryDy=0;strokeColor=#23445D;endArrow=none;startFill=0;strokeWidth=2;" parent="1" source="ixsVfjGWsq4LzC2qJ3sS-113" target="ixsVfjGWsq4LzC2qJ3sS-108" edge="1">
          <mxGeometry relative="1" as="geometry">
            <Array as="points">
              <mxPoint x="690.7700000000004" y="2486.25" />
              <mxPoint x="793.7700000000004" y="2486.25" />
              <mxPoint x="793.7700000000004" y="2446.25" />
              <mxPoint x="800.7700000000004" y="2446.25" />
              <mxPoint x="800.7700000000004" y="2449.25" />
            </Array>
          </mxGeometry>
        </mxCell>
        <mxCell id="ixsVfjGWsq4LzC2qJ3sS-111" style="edgeStyle=orthogonalEdgeStyle;rounded=0;orthogonalLoop=1;jettySize=auto;html=1;entryX=0.5;entryY=1;entryDx=0;entryDy=0;strokeColor=#23445D;endArrow=none;startFill=0;strokeWidth=2;" parent="1" source="ixsVfjGWsq4LzC2qJ3sS-113" target="ixsVfjGWsq4LzC2qJ3sS-106" edge="1">
          <mxGeometry relative="1" as="geometry">
            <Array as="points">
              <mxPoint x="690.7700000000004" y="2496.25" />
              <mxPoint x="593.7700000000004" y="2496.25" />
            </Array>
          </mxGeometry>
        </mxCell>
        <mxCell id="ixsVfjGWsq4LzC2qJ3sS-112" style="rounded=0;orthogonalLoop=1;jettySize=auto;html=1;entryX=0;entryY=0.5;entryDx=0;entryDy=0;strokeColor=#23445D;endArrow=none;startFill=0;shape=link;" parent="1" source="ixsVfjGWsq4LzC2qJ3sS-113" target="ixsVfjGWsq4LzC2qJ3sS-235" edge="1">
          <mxGeometry relative="1" as="geometry">
            <mxPoint x="1012.5" y="2600.0000000000005" as="targetPoint" />
          </mxGeometry>
        </mxCell>
        <mxCell id="ixsVfjGWsq4LzC2qJ3sS-244" style="edgeStyle=orthogonalEdgeStyle;rounded=0;orthogonalLoop=1;jettySize=auto;html=1;exitX=0.25;exitY=0;exitDx=0;exitDy=0;entryX=1;entryY=0;entryDx=0;entryDy=0;" parent="1" source="ixsVfjGWsq4LzC2qJ3sS-113" target="ixsVfjGWsq4LzC2qJ3sS-241" edge="1">
          <mxGeometry relative="1" as="geometry">
            <Array as="points">
              <mxPoint x="690" y="2616" />
              <mxPoint x="690" y="2588" />
              <mxPoint x="591" y="2588" />
            </Array>
          </mxGeometry>
        </mxCell>
        <mxCell id="ixsVfjGWsq4LzC2qJ3sS-113" value="&lt;b style=&quot;color: rgb(255, 255, 255);&quot;&gt;&lt;font style=&quot;font-size: 30px;&quot;&gt;Intake&lt;/font&gt;&lt;/b&gt;" style="html=1;dashed=0;whiteSpace=wrap;fillColor=light-dark(#bc124c, #1d293b);strokeColor=#6c8ebf;rounded=1;" parent="1" vertex="1">
          <mxGeometry x="623.7600000000002" y="2616.25" width="133.4" height="65" as="geometry" />
        </mxCell>
        <mxCell id="ixsVfjGWsq4LzC2qJ3sS-114" style="rounded=0;orthogonalLoop=1;jettySize=auto;html=1;entryX=1;entryY=0.5;entryDx=0;entryDy=0;strokeColor=#23445D;strokeWidth=2;endArrow=none;startFill=0;shape=link;exitX=0;exitY=0.5;exitDx=0;exitDy=0;" parent="1" source="ixsVfjGWsq4LzC2qJ3sS-238" target="ixsVfjGWsq4LzC2qJ3sS-117" edge="1">
          <mxGeometry relative="1" as="geometry" />
        </mxCell>
        <mxCell id="ixsVfjGWsq4LzC2qJ3sS-115" style="rounded=0;orthogonalLoop=1;jettySize=auto;html=1;entryX=0;entryY=0.5;entryDx=0;entryDy=0;strokeColor=#23445D;endArrow=none;startFill=0;strokeWidth=2;shape=link;" parent="1" source="ixsVfjGWsq4LzC2qJ3sS-238" target="ixsVfjGWsq4LzC2qJ3sS-166" edge="1">
          <mxGeometry relative="1" as="geometry" />
        </mxCell>
        <mxCell id="ixsVfjGWsq4LzC2qJ3sS-117" value="&lt;span style=&quot;text-align: left;&quot;&gt;&lt;b&gt;&lt;font style=&quot;color: rgb(255, 255, 255); font-size: 30px;&quot;&gt;contains&lt;/font&gt;&lt;/b&gt;&lt;/span&gt;" style="rhombus;whiteSpace=wrap;html=1;rounded=1;fillColor=#f0a30a;strokeColor=#BD7000;fontColor=#000000;rotation=-55;" parent="1" vertex="1">
          <mxGeometry x="1728.1400000000003" y="2345.6400000000003" width="210" height="90" as="geometry" />
        </mxCell>
        <mxCell id="ixsVfjGWsq4LzC2qJ3sS-118" style="rounded=1;orthogonalLoop=1;jettySize=auto;html=1;entryX=0.5;entryY=1;entryDx=0;entryDy=0;exitX=0.5;exitY=0;exitDx=0;exitDy=0;endArrow=none;startFill=0;strokeWidth=2;" parent="1" source="ixsVfjGWsq4LzC2qJ3sS-122" target="ixsVfjGWsq4LzC2qJ3sS-123" edge="1">
          <mxGeometry relative="1" as="geometry">
            <mxPoint x="1630" y="2577.5" as="sourcePoint" />
            <mxPoint x="1557.5" y="2497.5" as="targetPoint" />
          </mxGeometry>
        </mxCell>
        <mxCell id="ixsVfjGWsq4LzC2qJ3sS-119" value="&lt;code data-end=&quot;189&quot; data-start=&quot;174&quot;&gt;&lt;b&gt;&lt;font face=&quot;Helvetica&quot; style=&quot;color: rgb(255, 255, 255); font-size: 20px;&quot;&gt;TrackName&lt;/font&gt;&lt;/b&gt;&lt;/code&gt;" style="ellipse;whiteSpace=wrap;html=1;align=center;fillColor=light-dark(#182E3E,#EDEDED);rotation=0;rounded=1;" parent="1" vertex="1">
          <mxGeometry x="1616.229999999999" y="2362.5" width="120" height="40" as="geometry" />
        </mxCell>
        <mxCell id="ixsVfjGWsq4LzC2qJ3sS-120" style="rounded=1;orthogonalLoop=1;jettySize=auto;html=1;exitX=0.5;exitY=0;exitDx=0;exitDy=0;endArrow=none;startFill=0;entryX=0.573;entryY=0.971;entryDx=0;entryDy=0;entryPerimeter=0;strokeWidth=2;" parent="1" source="ixsVfjGWsq4LzC2qJ3sS-122" target="ixsVfjGWsq4LzC2qJ3sS-119" edge="1">
          <mxGeometry relative="1" as="geometry">
            <mxPoint x="1630" y="2577.5" as="sourcePoint" />
            <mxPoint x="1747.5" y="2523.75" as="targetPoint" />
          </mxGeometry>
        </mxCell>
        <mxCell id="ixsVfjGWsq4LzC2qJ3sS-121" style="rounded=0;orthogonalLoop=1;jettySize=auto;html=1;entryX=0;entryY=0.5;entryDx=0;entryDy=0;strokeColor=#23445D;endArrow=none;startFill=0;strokeWidth=2;shape=link;exitX=1;exitY=0.25;exitDx=0;exitDy=0;" parent="1" source="ixsVfjGWsq4LzC2qJ3sS-122" target="ixsVfjGWsq4LzC2qJ3sS-117" edge="1">
          <mxGeometry relative="1" as="geometry" />
        </mxCell>
        <mxCell id="d0LR6xK-CXsM-hkLY7xV-6" style="rounded=0;orthogonalLoop=1;jettySize=auto;html=1;entryX=0.5;entryY=1;entryDx=0;entryDy=0;endArrow=none;startFill=0;exitX=0.5;exitY=0;exitDx=0;exitDy=0;strokeWidth=2;" parent="1" source="ixsVfjGWsq4LzC2qJ3sS-122" target="ixsVfjGWsq4LzC2qJ3sS-242" edge="1">
          <mxGeometry relative="1" as="geometry" />
        </mxCell>
        <mxCell id="ixsVfjGWsq4LzC2qJ3sS-122" value="&lt;b style=&quot;color: rgb(255, 255, 255);&quot;&gt;&lt;font style=&quot;font-size: 30px;&quot;&gt;Track&lt;/font&gt;&lt;/b&gt;" style="html=1;dashed=0;whiteSpace=wrap;fillColor=light-dark(#bc124c, #1d293b);strokeColor=#6c8ebf;rounded=1;" parent="1" vertex="1">
          <mxGeometry x="1530" y="2596.25" width="167.5" height="65" as="geometry" />
        </mxCell>
        <mxCell id="ixsVfjGWsq4LzC2qJ3sS-123" value="&lt;b style=&quot;color: rgb(0, 0, 0); font-family: monospace;&quot;&gt;&lt;font style=&quot;color: rgb(255, 255, 255); font-size: 20px;&quot; face=&quot;Helvetica&quot;&gt;TrackID&lt;/font&gt;&lt;/b&gt;" style="ellipse;whiteSpace=wrap;html=1;align=center;fontStyle=4;strokeColor=#FFFFFF;fontColor=#FFFFFF;fillColor=#182E3E;" parent="1" vertex="1">
          <mxGeometry x="1539.3100000000004" y="2315.63" width="100" height="40" as="geometry" />
        </mxCell>
        <mxCell id="ixsVfjGWsq4LzC2qJ3sS-124" value="&lt;font style=&quot;color: rgb(0, 0, 0); font-size: 24px;&quot;&gt;&lt;b style=&quot;&quot;&gt;1&lt;/b&gt;&lt;/font&gt;" style="text;html=1;align=center;verticalAlign=middle;whiteSpace=wrap;rounded=0;fontColor=#FFFFFF;rotation=-45;" parent="1" vertex="1">
          <mxGeometry x="1840" y="2245.63" width="60" height="33.75" as="geometry" />
        </mxCell>
        <mxCell id="ixsVfjGWsq4LzC2qJ3sS-125" value="&lt;font style=&quot;color: rgb(0, 0, 0); font-size: 20px;&quot;&gt;&lt;b style=&quot;&quot;&gt;M&lt;/b&gt;&lt;/font&gt;" style="text;html=1;align=center;verticalAlign=middle;whiteSpace=wrap;rounded=0;fontColor=#FFFFFF;rotation=-60;" parent="1" vertex="1">
          <mxGeometry x="1709.999999999999" y="2457.5" width="60" height="30" as="geometry" />
        </mxCell>
        <mxCell id="ixsVfjGWsq4LzC2qJ3sS-126" style="rounded=1;orthogonalLoop=1;jettySize=auto;html=1;entryX=0.5;entryY=1;entryDx=0;entryDy=0;exitX=0.5;exitY=0.077;exitDx=0;exitDy=0;endArrow=none;startFill=0;exitPerimeter=0;edgeStyle=orthogonalEdgeStyle;" parent="1" source="ixsVfjGWsq4LzC2qJ3sS-140" target="ixsVfjGWsq4LzC2qJ3sS-131" edge="1">
          <mxGeometry relative="1" as="geometry">
            <mxPoint x="2722.6400000000012" y="2130" as="sourcePoint" />
          </mxGeometry>
        </mxCell>
        <mxCell id="ixsVfjGWsq4LzC2qJ3sS-127" style="rounded=1;orthogonalLoop=1;jettySize=auto;html=1;entryX=0.5;entryY=1;entryDx=0;entryDy=0;exitX=0.5;exitY=0;exitDx=0;exitDy=0;endArrow=none;startFill=0;edgeStyle=orthogonalEdgeStyle;" parent="1" source="ixsVfjGWsq4LzC2qJ3sS-140" target="ixsVfjGWsq4LzC2qJ3sS-132" edge="1">
          <mxGeometry relative="1" as="geometry">
            <mxPoint x="2722.6400000000012" y="2130" as="sourcePoint" />
            <Array as="points">
              <mxPoint x="2723" y="2020" />
              <mxPoint x="2800" y="2020" />
              <mxPoint x="2800" y="1900" />
              <mxPoint x="2915" y="1900" />
            </Array>
          </mxGeometry>
        </mxCell>
        <mxCell id="ixsVfjGWsq4LzC2qJ3sS-128" style="rounded=1;orthogonalLoop=1;jettySize=auto;html=1;entryX=0.5;entryY=1;entryDx=0;entryDy=0;exitX=0.5;exitY=0;exitDx=0;exitDy=0;endArrow=none;startFill=0;edgeStyle=orthogonalEdgeStyle;" parent="1" source="ixsVfjGWsq4LzC2qJ3sS-140" target="ixsVfjGWsq4LzC2qJ3sS-133" edge="1">
          <mxGeometry relative="1" as="geometry">
            <mxPoint x="2889.81911113762" y="1897.855752193731" as="targetPoint" />
            <mxPoint x="2722.6400000000012" y="2130" as="sourcePoint" />
            <Array as="points">
              <mxPoint x="2723" y="2020" />
              <mxPoint x="2935" y="2020" />
            </Array>
          </mxGeometry>
        </mxCell>
        <mxCell id="ixsVfjGWsq4LzC2qJ3sS-129" value="&lt;code data-end=&quot;189&quot; data-start=&quot;174&quot;&gt;&lt;b&gt;&lt;font face=&quot;Helvetica&quot; style=&quot;color: rgb(255, 255, 255); font-size: 20px;&quot;&gt;CourseID&lt;/font&gt;&lt;/b&gt;&lt;/code&gt;" style="ellipse;whiteSpace=wrap;html=1;align=center;fillColor=light-dark(#182E3E,#EDEDED);rotation=0;rounded=1;" parent="1" vertex="1">
          <mxGeometry x="2640" y="1802.5" width="120" height="40" as="geometry" />
        </mxCell>
        <mxCell id="ixsVfjGWsq4LzC2qJ3sS-130" style="rounded=1;orthogonalLoop=1;jettySize=auto;html=1;entryX=0.559;entryY=1.02;entryDx=0;entryDy=0;entryPerimeter=0;endArrow=none;startFill=0;exitX=0.5;exitY=0;exitDx=0;exitDy=0;edgeStyle=orthogonalEdgeStyle;" parent="1" source="ixsVfjGWsq4LzC2qJ3sS-140" target="ixsVfjGWsq4LzC2qJ3sS-129" edge="1">
          <mxGeometry relative="1" as="geometry">
            <mxPoint x="2722.6400000000012" y="2130" as="sourcePoint" />
          </mxGeometry>
        </mxCell>
        <mxCell id="ixsVfjGWsq4LzC2qJ3sS-131" value="&lt;code data-end=&quot;189&quot; data-start=&quot;174&quot;&gt;&lt;b&gt;&lt;font face=&quot;Helvetica&quot; style=&quot;color: rgb(255, 255, 255); font-size: 20px;&quot;&gt;CourseName&lt;/font&gt;&lt;/b&gt;&lt;/code&gt;" style="ellipse;whiteSpace=wrap;html=1;align=center;fillColor=light-dark(#182E3E,#EDEDED);rotation=0;rounded=1;" parent="1" vertex="1">
          <mxGeometry x="2470" y="1845.17" width="156" height="40" as="geometry" />
        </mxCell>
        <mxCell id="ixsVfjGWsq4LzC2qJ3sS-132" value="&lt;code data-end=&quot;189&quot; data-start=&quot;174&quot;&gt;&lt;b&gt;&lt;font face=&quot;Helvetica&quot; style=&quot;color: rgb(255, 255, 255); font-size: 20px;&quot;&gt;Coursedescription&lt;/font&gt;&lt;/b&gt;&lt;/code&gt;" style="ellipse;whiteSpace=wrap;html=1;align=center;fillColor=light-dark(#182E3E,#EDEDED);rotation=0;rounded=1;" parent="1" vertex="1">
          <mxGeometry x="2820" y="1810" width="190" height="57.5" as="geometry" />
        </mxCell>
        <mxCell id="ixsVfjGWsq4LzC2qJ3sS-133" value="&lt;code data-end=&quot;189&quot; data-start=&quot;174&quot;&gt;&lt;b&gt;&lt;font face=&quot;Helvetica&quot; style=&quot;color: rgb(255, 255, 255); font-size: 20px;&quot;&gt;MinDegree&lt;/font&gt;&lt;/b&gt;&lt;/code&gt;" style="ellipse;whiteSpace=wrap;html=1;align=center;fillColor=light-dark(#182E3E,#EDEDED);rotation=0;rounded=1;" parent="1" vertex="1">
          <mxGeometry x="2874.6000000000004" y="1907.5" width="120" height="40" as="geometry" />
        </mxCell>
        <mxCell id="ixsVfjGWsq4LzC2qJ3sS-134" value="&lt;code data-end=&quot;189&quot; data-start=&quot;174&quot;&gt;&lt;b&gt;&lt;font face=&quot;Helvetica&quot; style=&quot;color: rgb(255, 255, 255); font-size: 20px;&quot;&gt;MaxDegree&lt;/font&gt;&lt;/b&gt;&lt;/code&gt;" style="ellipse;whiteSpace=wrap;html=1;align=center;fillColor=light-dark(#182E3E,#EDEDED);rotation=0;rounded=1;" parent="1" vertex="1">
          <mxGeometry x="2800.379999999999" y="2030" width="129.24" height="40" as="geometry" />
        </mxCell>
        <mxCell id="ixsVfjGWsq4LzC2qJ3sS-135" style="rounded=1;orthogonalLoop=1;jettySize=auto;html=1;entryX=0.444;entryY=0.898;entryDx=0;entryDy=0;entryPerimeter=0;endArrow=none;startFill=0;exitX=0.5;exitY=0;exitDx=0;exitDy=0;edgeStyle=orthogonalEdgeStyle;" parent="1" source="ixsVfjGWsq4LzC2qJ3sS-140" target="ixsVfjGWsq4LzC2qJ3sS-134" edge="1">
          <mxGeometry relative="1" as="geometry">
            <mxPoint x="2722.24" y="2135" as="sourcePoint" />
          </mxGeometry>
        </mxCell>
        <mxCell id="ixsVfjGWsq4LzC2qJ3sS-136" style="rounded=0;orthogonalLoop=1;jettySize=auto;html=1;entryX=1;entryY=0.5;entryDx=0;entryDy=0;strokeColor=#23445D;exitX=0;exitY=0.5;exitDx=0;exitDy=0;endArrow=none;startFill=0;shape=link;strokeWidth=2;" parent="1" source="ixsVfjGWsq4LzC2qJ3sS-140" target="ixsVfjGWsq4LzC2qJ3sS-141" edge="1">
          <mxGeometry relative="1" as="geometry" />
        </mxCell>
        <mxCell id="ixsVfjGWsq4LzC2qJ3sS-137" style="rounded=0;orthogonalLoop=1;jettySize=auto;html=1;entryX=1;entryY=0.5;entryDx=0;entryDy=0;strokeColor=#23445D;endArrow=none;startFill=0;exitX=0;exitY=0.75;exitDx=0;exitDy=0;strokeWidth=2;shape=link;" parent="1" source="ixsVfjGWsq4LzC2qJ3sS-140" target="ixsVfjGWsq4LzC2qJ3sS-145" edge="1">
          <mxGeometry relative="1" as="geometry" />
        </mxCell>
        <mxCell id="ixsVfjGWsq4LzC2qJ3sS-138" style="rounded=0;orthogonalLoop=1;jettySize=auto;html=1;entryX=0;entryY=0.5;entryDx=0;entryDy=0;strokeColor=#23445D;endArrow=none;startFill=0;strokeWidth=2;shape=link;" parent="1" source="ixsVfjGWsq4LzC2qJ3sS-140" target="ixsVfjGWsq4LzC2qJ3sS-200" edge="1">
          <mxGeometry relative="1" as="geometry" />
        </mxCell>
        <mxCell id="ixsVfjGWsq4LzC2qJ3sS-139" style="rounded=0;orthogonalLoop=1;jettySize=auto;html=1;entryX=0;entryY=0.5;entryDx=0;entryDy=0;strokeColor=#23445D;endArrow=none;startFill=0;exitX=1;exitY=0.5;exitDx=0;exitDy=0;shape=link;strokeWidth=2;" parent="1" source="ixsVfjGWsq4LzC2qJ3sS-140" target="ixsVfjGWsq4LzC2qJ3sS-202" edge="1">
          <mxGeometry relative="1" as="geometry" />
        </mxCell>
        <mxCell id="ixsVfjGWsq4LzC2qJ3sS-248" style="edgeStyle=orthogonalEdgeStyle;rounded=0;orthogonalLoop=1;jettySize=auto;html=1;entryX=0.5;entryY=1;entryDx=0;entryDy=0;endArrow=none;endFill=0;" parent="1" source="ixsVfjGWsq4LzC2qJ3sS-140" target="ixsVfjGWsq4LzC2qJ3sS-246" edge="1">
          <mxGeometry relative="1" as="geometry">
            <mxPoint x="2670" y="1860" as="targetPoint" />
            <Array as="points">
              <mxPoint x="2723" y="2060" />
              <mxPoint x="2638" y="2060" />
            </Array>
          </mxGeometry>
        </mxCell>
        <mxCell id="ixsVfjGWsq4LzC2qJ3sS-140" value="&lt;b style=&quot;color: rgb(255, 255, 255);&quot;&gt;&lt;font style=&quot;font-size: 30px;&quot;&gt;Course&lt;/font&gt;&lt;/b&gt;" style="html=1;dashed=0;whiteSpace=wrap;fillColor=light-dark(#bc124c, #1d293b);strokeColor=#6c8ebf;rounded=1;" parent="1" vertex="1">
          <mxGeometry x="2615.9399999999987" y="2140" width="213.4" height="65" as="geometry" />
        </mxCell>
        <mxCell id="ixsVfjGWsq4LzC2qJ3sS-141" value="&lt;span style=&quot;text-align: left;&quot;&gt;&lt;b&gt;&lt;font style=&quot;color: rgb(255, 255, 255); font-size: 30px;&quot;&gt;Teach&lt;/font&gt;&lt;/b&gt;&lt;/span&gt;" style="rhombus;whiteSpace=wrap;html=1;rounded=1;fillColor=#f0a30a;strokeColor=#BD7000;fontColor=#000000;rotation=45;" parent="1" vertex="1">
          <mxGeometry x="2229.16" y="1840" width="230" height="90" as="geometry" />
        </mxCell>
        <mxCell id="ixsVfjGWsq4LzC2qJ3sS-142" value="&lt;font style=&quot;color: rgb(0, 0, 0); font-size: 30px;&quot;&gt;&lt;b&gt;M&lt;/b&gt;&lt;/font&gt;" style="text;html=1;align=center;verticalAlign=middle;whiteSpace=wrap;rounded=0;fontColor=#FFFFFF;rotation=45;" parent="1" vertex="1">
          <mxGeometry x="2440" y="1950" width="60" height="30" as="geometry" />
        </mxCell>
        <mxCell id="ixsVfjGWsq4LzC2qJ3sS-143" value="&lt;font style=&quot;color: rgb(0, 0, 0); font-size: 30px;&quot;&gt;&lt;b&gt;1&lt;/b&gt;&lt;/font&gt;" style="text;html=1;align=center;verticalAlign=middle;whiteSpace=wrap;rounded=0;fontColor=#FFFFFF;rotation=45;" parent="1" vertex="1">
          <mxGeometry x="2240" y="1747.1299999999999" width="60" height="50.37" as="geometry" />
        </mxCell>
        <mxCell id="ixsVfjGWsq4LzC2qJ3sS-144" style="rounded=0;orthogonalLoop=1;jettySize=auto;html=1;entryX=1;entryY=0.25;entryDx=0;entryDy=0;strokeColor=#23445D;endArrow=none;startFill=0;exitX=0;exitY=0.5;exitDx=0;exitDy=0;strokeWidth=2;shape=link;" parent="1" source="ixsVfjGWsq4LzC2qJ3sS-145" target="ixsVfjGWsq4LzC2qJ3sS-122" edge="1">
          <mxGeometry relative="1" as="geometry" />
        </mxCell>
        <mxCell id="ixsVfjGWsq4LzC2qJ3sS-145" value="&lt;span style=&quot;text-align: left;&quot;&gt;&lt;b&gt;&lt;font style=&quot;color: rgb(255, 255, 255); font-size: 30px;&quot;&gt;Has&lt;/font&gt;&lt;/b&gt;&lt;/span&gt;" style="rhombus;whiteSpace=wrap;html=1;rounded=1;fillColor=#f0a30a;strokeColor=#BD7000;fontColor=#000000;rotation=-20;" parent="1" vertex="1">
          <mxGeometry x="2127.510000000001" y="2297.5" width="290" height="90" as="geometry" />
        </mxCell>
        <mxCell id="ixsVfjGWsq4LzC2qJ3sS-146" value="&lt;font style=&quot;color: rgb(0, 0, 0); font-size: 30px;&quot;&gt;&lt;b&gt;M&lt;/b&gt;&lt;/font&gt;" style="text;html=1;align=center;verticalAlign=middle;whiteSpace=wrap;rounded=0;fontColor=#FFFFFF;rotation=-30;" parent="1" vertex="1">
          <mxGeometry x="2380" y="2240" width="60" height="30" as="geometry" />
        </mxCell>
        <mxCell id="ixsVfjGWsq4LzC2qJ3sS-147" value="&lt;font style=&quot;color: rgb(0, 0, 0); font-size: 30px;&quot;&gt;&lt;b&gt;M&lt;/b&gt;&lt;/font&gt;" style="text;html=1;align=center;verticalAlign=middle;whiteSpace=wrap;rounded=0;fontColor=#FFFFFF;rotation=-30;" parent="1" vertex="1">
          <mxGeometry x="2050" y="2367.5" width="60" height="30" as="geometry" />
        </mxCell>
        <mxCell id="ixsVfjGWsq4LzC2qJ3sS-148" style="rounded=0;orthogonalLoop=1;jettySize=auto;html=1;entryX=0;entryY=0.5;entryDx=0;entryDy=0;strokeColor=#23445D;endArrow=none;startFill=0;shape=link;exitX=1;exitY=0.5;exitDx=0;exitDy=0;" parent="1" source="ixsVfjGWsq4LzC2qJ3sS-235" target="ixsVfjGWsq4LzC2qJ3sS-122" edge="1">
          <mxGeometry relative="1" as="geometry">
            <mxPoint x="1242.5" y="2600.0000000000005" as="sourcePoint" />
          </mxGeometry>
        </mxCell>
        <mxCell id="ixsVfjGWsq4LzC2qJ3sS-149" value="&lt;font style=&quot;color: rgb(0, 0, 0); font-size: 30px;&quot;&gt;&lt;b&gt;M&lt;/b&gt;&lt;/font&gt;" style="text;html=1;align=center;verticalAlign=middle;whiteSpace=wrap;rounded=0;fontColor=#FFFFFF;rotation=-15;" parent="1" vertex="1">
          <mxGeometry x="969.3299999999999" y="2562.5" width="60" height="30" as="geometry" />
        </mxCell>
        <mxCell id="ixsVfjGWsq4LzC2qJ3sS-150" value="&lt;font style=&quot;color: rgb(0, 0, 0); font-size: 30px;&quot;&gt;&lt;b&gt;M&lt;/b&gt;&lt;/font&gt;" style="text;html=1;align=center;verticalAlign=middle;whiteSpace=wrap;rounded=0;fontColor=#FFFFFF;rotation=15;" parent="1" vertex="1">
          <mxGeometry x="1259.9700000000003" y="2563.75" width="60" height="30" as="geometry" />
        </mxCell>
        <mxCell id="ixsVfjGWsq4LzC2qJ3sS-151" value="&lt;font style=&quot;color: rgb(0, 0, 0); font-size: 30px;&quot;&gt;&lt;b&gt;M&lt;/b&gt;&lt;/font&gt;" style="text;html=1;align=center;verticalAlign=middle;whiteSpace=wrap;rounded=0;fontColor=#FFFFFF;rotation=15;" parent="1" vertex="1">
          <mxGeometry x="1150" y="2515" width="60" height="30" as="geometry" />
        </mxCell>
        <mxCell id="ixsVfjGWsq4LzC2qJ3sS-153" style="rounded=0;orthogonalLoop=1;jettySize=auto;html=1;entryX=0.5;entryY=1;entryDx=0;entryDy=0;strokeColor=#23445D;endArrow=none;startFill=0;strokeWidth=2;edgeStyle=orthogonalEdgeStyle;" parent="1" source="ixsVfjGWsq4LzC2qJ3sS-163" target="ixsVfjGWsq4LzC2qJ3sS-164" edge="1">
          <mxGeometry relative="1" as="geometry" />
        </mxCell>
        <mxCell id="ixsVfjGWsq4LzC2qJ3sS-154" style="rounded=0;orthogonalLoop=1;jettySize=auto;html=1;entryX=0.5;entryY=1;entryDx=0;entryDy=0;strokeColor=#23445D;strokeWidth=2;endArrow=none;startFill=0;edgeStyle=orthogonalEdgeStyle;" parent="1" source="ixsVfjGWsq4LzC2qJ3sS-163" target="ixsVfjGWsq4LzC2qJ3sS-181" edge="1">
          <mxGeometry relative="1" as="geometry">
            <Array as="points">
              <mxPoint x="2949" y="895" />
              <mxPoint x="2850" y="895" />
            </Array>
          </mxGeometry>
        </mxCell>
        <mxCell id="ixsVfjGWsq4LzC2qJ3sS-155" style="edgeStyle=orthogonalEdgeStyle;rounded=0;orthogonalLoop=1;jettySize=auto;html=1;entryX=0.5;entryY=1;entryDx=0;entryDy=0;strokeColor=#23445D;endArrow=none;startFill=0;strokeWidth=2;" parent="1" source="ixsVfjGWsq4LzC2qJ3sS-163" target="ixsVfjGWsq4LzC2qJ3sS-184" edge="1">
          <mxGeometry relative="1" as="geometry">
            <Array as="points">
              <mxPoint x="2949" y="944" />
              <mxPoint x="3219" y="944" />
            </Array>
          </mxGeometry>
        </mxCell>
        <mxCell id="ixsVfjGWsq4LzC2qJ3sS-156" style="edgeStyle=orthogonalEdgeStyle;rounded=0;orthogonalLoop=1;jettySize=auto;html=1;entryX=0.5;entryY=1;entryDx=0;entryDy=0;strokeColor=#23445D;endArrow=none;startFill=0;strokeWidth=2;" parent="1" source="ixsVfjGWsq4LzC2qJ3sS-163" target="ixsVfjGWsq4LzC2qJ3sS-183" edge="1">
          <mxGeometry relative="1" as="geometry">
            <Array as="points">
              <mxPoint x="2949" y="945" />
              <mxPoint x="2710" y="945" />
            </Array>
          </mxGeometry>
        </mxCell>
        <mxCell id="ixsVfjGWsq4LzC2qJ3sS-157" style="edgeStyle=orthogonalEdgeStyle;rounded=0;orthogonalLoop=1;jettySize=auto;html=1;strokeColor=#23445D;exitX=0.5;exitY=0;exitDx=0;exitDy=0;endArrow=none;startFill=0;strokeWidth=2;" parent="1" source="ixsVfjGWsq4LzC2qJ3sS-163" target="ixsVfjGWsq4LzC2qJ3sS-182" edge="1">
          <mxGeometry relative="1" as="geometry">
            <Array as="points">
              <mxPoint x="2949" y="905" />
              <mxPoint x="3150" y="905" />
            </Array>
          </mxGeometry>
        </mxCell>
        <mxCell id="ixsVfjGWsq4LzC2qJ3sS-158" style="edgeStyle=orthogonalEdgeStyle;rounded=0;orthogonalLoop=1;jettySize=auto;html=1;strokeColor=#23445D;exitX=0.5;exitY=0;exitDx=0;exitDy=0;entryX=0.5;entryY=1;entryDx=0;entryDy=0;endArrow=none;startFill=0;strokeWidth=2;" parent="1" source="ixsVfjGWsq4LzC2qJ3sS-163" target="ixsVfjGWsq4LzC2qJ3sS-185" edge="1">
          <mxGeometry relative="1" as="geometry">
            <mxPoint x="2951.5288888888863" y="915" as="sourcePoint" />
            <mxPoint x="2703.4000000000015" y="795.0000000000002" as="targetPoint" />
            <Array as="points">
              <mxPoint x="2951" y="955.5" />
              <mxPoint x="2951" y="867.5" />
              <mxPoint x="2765" y="867.5" />
            </Array>
          </mxGeometry>
        </mxCell>
        <mxCell id="ixsVfjGWsq4LzC2qJ3sS-159" style="edgeStyle=orthogonalEdgeStyle;rounded=0;orthogonalLoop=1;jettySize=auto;html=1;entryX=0.5;entryY=1;entryDx=0;entryDy=0;strokeColor=#23445D;endArrow=none;startFill=0;strokeWidth=2;" parent="1" source="ixsVfjGWsq4LzC2qJ3sS-163" target="ixsVfjGWsq4LzC2qJ3sS-186" edge="1">
          <mxGeometry relative="1" as="geometry" />
        </mxCell>
        <mxCell id="ixsVfjGWsq4LzC2qJ3sS-160" style="edgeStyle=orthogonalEdgeStyle;rounded=0;orthogonalLoop=1;jettySize=auto;html=1;strokeColor=#23445D;entryX=0.5;entryY=1;entryDx=0;entryDy=0;shape=link;strokeWidth=2;" parent="1" source="ixsVfjGWsq4LzC2qJ3sS-163" target="ixsVfjGWsq4LzC2qJ3sS-234" edge="1">
          <mxGeometry relative="1" as="geometry">
            <mxPoint x="2440" y="319.6300000000001" as="targetPoint" />
          </mxGeometry>
        </mxCell>
        <mxCell id="K7v5izBzIZWcgRyMSrnI-3" style="rounded=0;orthogonalLoop=1;jettySize=auto;html=1;entryX=0;entryY=0.5;entryDx=0;entryDy=0;endArrow=none;startFill=0;strokeWidth=2;" edge="1" parent="1" source="ixsVfjGWsq4LzC2qJ3sS-163" target="K7v5izBzIZWcgRyMSrnI-1">
          <mxGeometry relative="1" as="geometry" />
        </mxCell>
        <mxCell id="ixsVfjGWsq4LzC2qJ3sS-163" value="&lt;b style=&quot;color: rgb(255, 255, 255);&quot;&gt;&lt;font style=&quot;font-size: 30px; color: rgb(255, 255, 255);&quot;&gt;Exam&lt;/font&gt;&lt;/b&gt;" style="html=1;dashed=0;whiteSpace=wrap;fillColor=light-dark(#bc124c, #1d293b);strokeColor=#6c8ebf;rounded=1;rotation=0;" parent="1" vertex="1">
          <mxGeometry x="2870" y="955" width="157.84" height="80" as="geometry" />
        </mxCell>
        <mxCell id="ixsVfjGWsq4LzC2qJ3sS-164" value="&lt;font color=&quot;#ffffff&quot;&gt;&lt;span style=&quot;font-size: 20px;&quot;&gt;&lt;b&gt;&lt;u&gt;ExamID&lt;/u&gt;&lt;/b&gt;&lt;/span&gt;&lt;/font&gt;" style="ellipse;whiteSpace=wrap;html=1;align=center;fillColor=light-dark(#182E3E,#EDEDED);rotation=0;rounded=1;" parent="1" vertex="1">
          <mxGeometry x="2892.6699999999983" y="685" width="112.5" height="40" as="geometry" />
        </mxCell>
        <mxCell id="ixsVfjGWsq4LzC2qJ3sS-166" value="&lt;span style=&quot;text-align: left;&quot;&gt;&lt;b&gt;&lt;font style=&quot;color: rgb(255, 255, 255); font-size: 30px;&quot;&gt;Has&lt;/font&gt;&lt;/b&gt;&lt;/span&gt;" style="rhombus;whiteSpace=wrap;html=1;rounded=1;fillColor=#f0a30a;strokeColor=#BD7000;fontColor=#000000;rotation=-75;" parent="1" vertex="1">
          <mxGeometry x="2050" y="1880.37" width="140" height="89.63" as="geometry" />
        </mxCell>
        <mxCell id="ixsVfjGWsq4LzC2qJ3sS-167" style="rounded=0;orthogonalLoop=1;jettySize=auto;html=1;entryX=0.897;entryY=0.59;entryDx=0;entryDy=0;entryPerimeter=0;strokeColor=#23445D;endArrow=none;startFill=0;strokeWidth=2;shape=link;" parent="1" source="ixsVfjGWsq4LzC2qJ3sS-86" target="ixsVfjGWsq4LzC2qJ3sS-166" edge="1">
          <mxGeometry relative="1" as="geometry" />
        </mxCell>
        <mxCell id="ixsVfjGWsq4LzC2qJ3sS-168" value="&lt;font style=&quot;color: rgb(0, 0, 0); font-size: 30px;&quot;&gt;&lt;b&gt;M&lt;/b&gt;&lt;/font&gt;" style="text;html=1;align=center;verticalAlign=middle;whiteSpace=wrap;rounded=0;fontColor=#FFFFFF;rotation=-90;" parent="1" vertex="1">
          <mxGeometry x="2070.76" y="1821.25" width="60" height="27.5" as="geometry" />
        </mxCell>
        <mxCell id="ixsVfjGWsq4LzC2qJ3sS-169" value="&lt;font style=&quot;color: rgb(0, 0, 0); font-size: 30px;&quot;&gt;&lt;b&gt;1&lt;/b&gt;&lt;/font&gt;" style="text;html=1;align=center;verticalAlign=middle;whiteSpace=wrap;rounded=0;fontColor=#FFFFFF;rotation=-60;" parent="1" vertex="1">
          <mxGeometry x="2030" y="1977.5" width="60" height="27.5" as="geometry" />
        </mxCell>
        <mxCell id="ixsVfjGWsq4LzC2qJ3sS-172" style="rounded=0;orthogonalLoop=1;jettySize=auto;html=1;entryX=0.46;entryY=-0.014;entryDx=0;entryDy=0;strokeColor=#23445D;exitX=0;exitY=0.5;exitDx=0;exitDy=0;strokeWidth=2;endArrow=none;startFill=0;shape=link;entryPerimeter=0;" parent="1" source="ixsVfjGWsq4LzC2qJ3sS-173" target="ixsVfjGWsq4LzC2qJ3sS-235" edge="1">
          <mxGeometry relative="1" as="geometry">
            <mxPoint x="1127.5" y="2555.0000000000005" as="targetPoint" />
          </mxGeometry>
        </mxCell>
        <mxCell id="ixsVfjGWsq4LzC2qJ3sS-173" value="&lt;div style=&quot;text-align: left;&quot;&gt;&lt;span style=&quot;background-color: transparent; font-size: 30px;&quot;&gt;&lt;font color=&quot;#ffffff&quot;&gt;&lt;b&gt;belongs to&lt;/b&gt;&lt;/font&gt;&lt;/span&gt;&lt;/div&gt;" style="rhombus;whiteSpace=wrap;html=1;rounded=1;fillColor=#f0a30a;strokeColor=#BD7000;fontColor=#000000;rotation=-85;" parent="1" vertex="1">
          <mxGeometry x="750" y="1957.5" width="270" height="90" as="geometry" />
        </mxCell>
        <mxCell id="ixsVfjGWsq4LzC2qJ3sS-174" value="&lt;font style=&quot;font-size: 30px; color: rgb(0, 0, 0);&quot;&gt;&lt;b&gt;M&lt;/b&gt;&lt;/font&gt;" style="text;html=1;align=center;verticalAlign=middle;whiteSpace=wrap;rounded=0;fontColor=#FFFFFF;rotation=-90;" parent="1" vertex="1">
          <mxGeometry x="840" y="1822.5" width="60" height="30" as="geometry" />
        </mxCell>
        <mxCell id="ixsVfjGWsq4LzC2qJ3sS-175" value="&lt;font style=&quot;font-size: 30px; color: rgb(0, 0, 0);&quot;&gt;&lt;b&gt;1&lt;/b&gt;&lt;/font&gt;" style="text;html=1;align=center;verticalAlign=middle;whiteSpace=wrap;rounded=0;fontColor=#FFFFFF;rotation=-90;" parent="1" vertex="1">
          <mxGeometry x="820" y="2127.5" width="60" height="30" as="geometry" />
        </mxCell>
        <mxCell id="ixsVfjGWsq4LzC2qJ3sS-176" style="rounded=0;orthogonalLoop=1;jettySize=auto;html=1;strokeColor=#23445D;exitX=0.915;exitY=0.474;exitDx=0;exitDy=0;exitPerimeter=0;endArrow=none;startFill=0;entryX=0.5;entryY=1;entryDx=0;entryDy=0;strokeWidth=2;shape=link;" parent="1" source="ixsVfjGWsq4LzC2qJ3sS-177" target="ixsVfjGWsq4LzC2qJ3sS-163" edge="1">
          <mxGeometry relative="1" as="geometry">
            <mxPoint x="2852.0499999999993" y="1567.5" as="targetPoint" />
          </mxGeometry>
        </mxCell>
        <mxCell id="ixsVfjGWsq4LzC2qJ3sS-177" value="&lt;span style=&quot;text-align: left;&quot;&gt;&lt;b&gt;&lt;font style=&quot;color: rgb(255, 255, 255); font-size: 30px;&quot;&gt;create&lt;/font&gt;&lt;/b&gt;&lt;/span&gt;" style="rhombus;whiteSpace=wrap;html=1;rounded=1;fillColor=#f0a30a;strokeColor=#BD7000;fontColor=#000000;rotation=-30;" parent="1" vertex="1">
          <mxGeometry x="2360" y="1239.5700000000002" width="230" height="90" as="geometry" />
        </mxCell>
        <mxCell id="ixsVfjGWsq4LzC2qJ3sS-178" style="rounded=0;orthogonalLoop=1;jettySize=auto;html=1;entryX=0;entryY=0.5;entryDx=0;entryDy=0;strokeColor=#23445D;endArrow=none;startFill=0;strokeWidth=2;shape=link;" parent="1" source="ixsVfjGWsq4LzC2qJ3sS-86" target="ixsVfjGWsq4LzC2qJ3sS-177" edge="1">
          <mxGeometry relative="1" as="geometry" />
        </mxCell>
        <mxCell id="ixsVfjGWsq4LzC2qJ3sS-179" value="&lt;font style=&quot;color: rgb(0, 0, 0); font-size: 30px;&quot;&gt;&lt;b&gt;M&lt;/b&gt;&lt;/font&gt;" style="text;html=1;align=center;verticalAlign=middle;whiteSpace=wrap;rounded=0;fontColor=#FFFFFF;rotation=-30;" parent="1" vertex="1">
          <mxGeometry x="2540" y="1166.25" width="60" height="27.5" as="geometry" />
        </mxCell>
        <mxCell id="ixsVfjGWsq4LzC2qJ3sS-181" value="&lt;code data-end=&quot;189&quot; data-start=&quot;174&quot;&gt;&lt;b&gt;&lt;font face=&quot;Helvetica&quot; style=&quot;color: rgb(255, 255, 255); font-size: 20px;&quot;&gt;ExamType&lt;/font&gt;&lt;/b&gt;&lt;/code&gt;" style="ellipse;whiteSpace=wrap;html=1;align=center;fillColor=light-dark(#182e3e, #ededed);rotation=0;rounded=1;" parent="1" vertex="1">
          <mxGeometry x="2770" y="640" width="130" height="40" as="geometry" />
        </mxCell>
        <mxCell id="ixsVfjGWsq4LzC2qJ3sS-182" value="&lt;code data-end=&quot;189&quot; data-start=&quot;174&quot;&gt;&lt;b&gt;&lt;font face=&quot;Helvetica&quot; style=&quot;color: rgb(255, 255, 255); font-size: 20px;&quot;&gt;MaxGrade&lt;/font&gt;&lt;/b&gt;&lt;/code&gt;" style="ellipse;whiteSpace=wrap;html=1;align=center;fillColor=light-dark(#182e3e, #ededed);rotation=0;rounded=1;" parent="1" vertex="1">
          <mxGeometry x="3105" y="710" width="135" height="47.5" as="geometry" />
        </mxCell>
        <mxCell id="ixsVfjGWsq4LzC2qJ3sS-183" value="&lt;code data-end=&quot;189&quot; data-start=&quot;174&quot;&gt;&lt;b&gt;&lt;font face=&quot;Helvetica&quot; style=&quot;color: rgb(255, 255, 255); font-size: 20px;&quot;&gt;No_Of_MCQ&lt;/font&gt;&lt;/b&gt;&lt;/code&gt;" style="ellipse;whiteSpace=wrap;html=1;align=center;fillColor=light-dark(#182e3e, #ededed);rotation=0;rounded=1;" parent="1" vertex="1">
          <mxGeometry x="2630" y="885" width="150" height="40" as="geometry" />
        </mxCell>
        <mxCell id="ixsVfjGWsq4LzC2qJ3sS-184" value="&lt;code data-end=&quot;189&quot; data-start=&quot;174&quot;&gt;&lt;b&gt;&lt;font face=&quot;Helvetica&quot; style=&quot;font-size: 16px; color: rgb(255, 255, 255);&quot;&gt;No_Of_TF&lt;/font&gt;&lt;/b&gt;&lt;/code&gt;" style="ellipse;whiteSpace=wrap;html=1;align=center;fillColor=light-dark(#182e3e, #ededed);rotation=0;rounded=1;" parent="1" vertex="1">
          <mxGeometry x="3159.24" y="795" width="120" height="40" as="geometry" />
        </mxCell>
        <mxCell id="ixsVfjGWsq4LzC2qJ3sS-185" value="&lt;code data-end=&quot;189&quot; data-start=&quot;174&quot;&gt;&lt;b&gt;&lt;font face=&quot;Helvetica&quot; style=&quot;color: rgb(255, 255, 255); font-size: 20px;&quot;&gt;No_Of_TextQ&lt;/font&gt;&lt;/b&gt;&lt;/code&gt;" style="ellipse;whiteSpace=wrap;html=1;align=center;fillColor=light-dark(#182e3e, #ededed);rotation=0;rounded=1;" parent="1" vertex="1">
          <mxGeometry x="2690" y="750" width="150" height="40" as="geometry" />
        </mxCell>
        <mxCell id="ixsVfjGWsq4LzC2qJ3sS-186" value="&lt;b style=&quot;color: rgb(255, 255, 255); font-size: 20px;&quot;&gt;Duration&lt;/b&gt;" style="ellipse;whiteSpace=wrap;html=1;align=center;fillColor=light-dark(#182e3e, #ededed);rotation=0;rounded=1;" parent="1" vertex="1">
          <mxGeometry x="3010" y="775" width="95" height="40" as="geometry" />
        </mxCell>
        <mxCell id="ixsVfjGWsq4LzC2qJ3sS-187" value="&lt;b style=&quot;color: rgb(255, 255, 255); font-size: 20px; text-align: left;&quot;&gt;allowance options&lt;/b&gt;" style="ellipse;shape=doubleEllipse;margin=3;whiteSpace=wrap;html=1;align=center;rotation=0;fillColor=light-dark(#182e3e, #198cc4);strokeColor=none;strokeWidth=2;perimeterSpacing=19;rounded=1;fontColor=#ffffff;" parent="1" vertex="1">
          <mxGeometry x="2983.42" y="566.84" width="148.15" height="87.07" as="geometry" />
        </mxCell>
        <mxCell id="ixsVfjGWsq4LzC2qJ3sS-188" style="rounded=1;orthogonalLoop=1;jettySize=auto;html=1;exitX=0.5;exitY=0;exitDx=0;exitDy=0;endArrow=none;startFill=0;edgeStyle=orthogonalEdgeStyle;entryX=0.5;entryY=1;entryDx=0;entryDy=0;strokeWidth=2;" parent="1" target="ixsVfjGWsq4LzC2qJ3sS-191" edge="1">
          <mxGeometry relative="1" as="geometry">
            <mxPoint x="3770" y="1120" as="targetPoint" />
            <mxPoint x="4106.82" y="1275" as="sourcePoint" />
          </mxGeometry>
        </mxCell>
        <mxCell id="ixsVfjGWsq4LzC2qJ3sS-189" style="rounded=1;orthogonalLoop=1;jettySize=auto;html=1;entryX=0.5;entryY=1;entryDx=0;entryDy=0;endArrow=none;startFill=0;edgeStyle=orthogonalEdgeStyle;strokeWidth=2;" parent="1" target="ixsVfjGWsq4LzC2qJ3sS-195" edge="1">
          <mxGeometry relative="1" as="geometry">
            <mxPoint x="4106.75" y="1275" as="sourcePoint" />
          </mxGeometry>
        </mxCell>
        <mxCell id="ixsVfjGWsq4LzC2qJ3sS-190" style="rounded=1;orthogonalLoop=1;jettySize=auto;html=1;entryX=0.5;entryY=1;entryDx=0;entryDy=0;endArrow=none;startFill=0;exitX=0.5;exitY=0;exitDx=0;exitDy=0;edgeStyle=orthogonalEdgeStyle;strokeWidth=2;" parent="1" target="ixsVfjGWsq4LzC2qJ3sS-197" edge="1">
          <mxGeometry relative="1" as="geometry">
            <mxPoint x="4106.82" y="1275" as="sourcePoint" />
          </mxGeometry>
        </mxCell>
        <mxCell id="ixsVfjGWsq4LzC2qJ3sS-191" value="&lt;code data-end=&quot;189&quot; data-start=&quot;174&quot;&gt;&lt;b&gt;&lt;font face=&quot;Helvetica&quot; style=&quot;font-size: 16px; color: rgb(255, 255, 255);&quot;&gt;QuestionType&lt;/font&gt;&lt;/b&gt;&lt;/code&gt;" style="ellipse;whiteSpace=wrap;html=1;align=center;fillColor=light-dark(#182e3e, #ededed);rotation=0;rounded=1;strokeColor=light-dark(#182e3e, #ededed);" parent="1" vertex="1">
          <mxGeometry x="3890" y="985" width="120" height="40" as="geometry" />
        </mxCell>
        <mxCell id="ixsVfjGWsq4LzC2qJ3sS-192" value="&lt;code data-end=&quot;189&quot; data-start=&quot;174&quot;&gt;&lt;b&gt;&lt;font face=&quot;Helvetica&quot; style=&quot;font-size: 16px; color: rgb(255, 255, 255);&quot;&gt;QuestionID&lt;/font&gt;&lt;/b&gt;&lt;/code&gt;" style="ellipse;whiteSpace=wrap;html=1;align=center;fillColor=light-dark(#182e3e, #ededed);rotation=0;rounded=1;strokeColor=light-dark(#182e3e, #ededed);" parent="1" vertex="1">
          <mxGeometry x="4050.000000000002" y="925" width="120" height="40" as="geometry" />
        </mxCell>
        <mxCell id="ixsVfjGWsq4LzC2qJ3sS-193" style="rounded=1;orthogonalLoop=1;jettySize=auto;html=1;entryX=0.5;entryY=1;entryDx=0;entryDy=0;endArrow=none;startFill=0;exitX=0.5;exitY=0;exitDx=0;exitDy=0;edgeStyle=orthogonalEdgeStyle;strokeWidth=2;" parent="1" source="ixsVfjGWsq4LzC2qJ3sS-212" target="ixsVfjGWsq4LzC2qJ3sS-192" edge="1">
          <mxGeometry relative="1" as="geometry">
            <mxPoint x="4106.82" y="1275" as="sourcePoint" />
            <Array as="points">
              <mxPoint x="4025" y="1040" />
              <mxPoint x="4110" y="1040" />
            </Array>
          </mxGeometry>
        </mxCell>
        <mxCell id="ixsVfjGWsq4LzC2qJ3sS-195" value="&lt;font style=&quot;color: rgb(255, 255, 255);&quot;&gt;&lt;span class=&quot;fontstyle0&quot;&gt;&lt;b&gt;&lt;font style=&quot;font-size: 16px;&quot;&gt;&lt;br&gt;Question&lt;/font&gt;&lt;/b&gt;&lt;/span&gt;&lt;/font&gt;&lt;div&gt;&lt;font color=&quot;#ffffff&quot;&gt;&lt;span style=&quot;font-size: 16px;&quot;&gt;&lt;b&gt;Mark&lt;/b&gt;&lt;/span&gt;&lt;/font&gt;&lt;br&gt;&lt;div&gt;&lt;br&gt;&lt;/div&gt;&lt;/div&gt;" style="ellipse;whiteSpace=wrap;html=1;align=center;fillColor=light-dark(#182e3e, #ededed);rotation=0;rounded=1;strokeColor=light-dark(#182e3e, #ededed);" parent="1" vertex="1">
          <mxGeometry x="4140.5" y="1157.51" width="125" height="45" as="geometry" />
        </mxCell>
        <mxCell id="ixsVfjGWsq4LzC2qJ3sS-196" value="&lt;b&gt;&lt;font style=&quot;font-size: 16px; color: rgb(255, 255, 255);&quot;&gt;DifficultyLevel&lt;/font&gt;&lt;/b&gt;" style="ellipse;whiteSpace=wrap;html=1;align=center;fillColor=light-dark(#182e3e, #ededed);rotation=0;rounded=1;strokeColor=light-dark(#182e3e, #ededed);" parent="1" vertex="1">
          <mxGeometry x="4113.84" y="1060" width="120" height="40" as="geometry" />
        </mxCell>
        <mxCell id="ixsVfjGWsq4LzC2qJ3sS-197" value="&lt;font style=&quot;color: rgb(255, 255, 255); font-size: 18px;&quot;&gt;&lt;b style=&quot;&quot;&gt;QuestionText&lt;/b&gt;&lt;/font&gt;" style="ellipse;whiteSpace=wrap;html=1;align=center;fillColor=light-dark(#182e3e, #ededed);rotation=0;rounded=1;strokeColor=light-dark(#182e3e, #ededed);" parent="1" vertex="1">
          <mxGeometry x="3780" y="1100" width="150" height="40" as="geometry" />
        </mxCell>
        <mxCell id="ixsVfjGWsq4LzC2qJ3sS-199" style="rounded=0;orthogonalLoop=1;jettySize=auto;html=1;entryX=0.5;entryY=1;entryDx=0;entryDy=0;strokeColor=#23445D;exitX=1;exitY=0.5;exitDx=0;exitDy=0;endArrow=none;startFill=0;strokeWidth=2;shape=link;" parent="1" source="ixsVfjGWsq4LzC2qJ3sS-200" target="ixsVfjGWsq4LzC2qJ3sS-163" edge="1">
          <mxGeometry relative="1" as="geometry" />
        </mxCell>
        <mxCell id="ixsVfjGWsq4LzC2qJ3sS-200" value="&lt;span style=&quot;text-align: left;&quot;&gt;&lt;b&gt;&lt;font style=&quot;color: rgb(255, 255, 255); font-size: 30px;&quot;&gt;has&lt;/font&gt;&lt;/b&gt;&lt;/span&gt;" style="rhombus;whiteSpace=wrap;html=1;rounded=1;fillColor=#f0a30a;strokeColor=#BD7000;fontColor=#000000;rotation=-75;" parent="1" vertex="1">
          <mxGeometry x="2750" y="1460" width="230" height="90" as="geometry" />
        </mxCell>
        <mxCell id="ixsVfjGWsq4LzC2qJ3sS-201" style="rounded=0;orthogonalLoop=1;jettySize=auto;html=1;strokeColor=#23445D;endArrow=none;startFill=0;exitX=1;exitY=0.5;exitDx=0;exitDy=0;shape=link;strokeWidth=2;entryX=0.5;entryY=1;entryDx=0;entryDy=0;" parent="1" source="ixsVfjGWsq4LzC2qJ3sS-202" target="ixsVfjGWsq4LzC2qJ3sS-212" edge="1">
          <mxGeometry relative="1" as="geometry">
            <mxPoint x="3910" y="1510" as="targetPoint" />
          </mxGeometry>
        </mxCell>
        <mxCell id="ixsVfjGWsq4LzC2qJ3sS-202" value="&lt;span style=&quot;text-align: left;&quot;&gt;&lt;b&gt;&lt;font style=&quot;color: rgb(255, 255, 255); font-size: 30px;&quot;&gt;has&lt;/font&gt;&lt;/b&gt;&lt;/span&gt;" style="rhombus;whiteSpace=wrap;html=1;rounded=1;fillColor=#f0a30a;strokeColor=#BD7000;fontColor=#000000;rotation=-35;" parent="1" vertex="1">
          <mxGeometry x="3279.24" y="1815" width="230" height="90" as="geometry" />
        </mxCell>
        <mxCell id="ixsVfjGWsq4LzC2qJ3sS-203" value="&lt;font style=&quot;color: rgb(0, 0, 0); font-size: 30px;&quot;&gt;&lt;b&gt;M&lt;/b&gt;&lt;/font&gt;" style="text;html=1;align=center;verticalAlign=middle;whiteSpace=wrap;rounded=0;fontColor=#FFFFFF;rotation=-30;strokeWidth=2;" parent="1" vertex="1">
          <mxGeometry x="3460" y="1742.5" width="60" height="27.5" as="geometry" />
        </mxCell>
        <mxCell id="ixsVfjGWsq4LzC2qJ3sS-204" value="&lt;font style=&quot;color: rgb(0, 0, 0); font-size: 32px;&quot;&gt;&lt;b style=&quot;&quot;&gt;1&lt;/b&gt;&lt;/font&gt;" style="text;html=1;align=center;verticalAlign=middle;whiteSpace=wrap;rounded=0;fontColor=#FFFFFF;rotation=-30;strokeWidth=6;" parent="1" vertex="1">
          <mxGeometry x="3219.24" y="1885.1699999999998" width="60" height="44.83" as="geometry" />
        </mxCell>
        <mxCell id="ixsVfjGWsq4LzC2qJ3sS-205" value="&lt;font style=&quot;color: rgb(0, 0, 0); font-size: 30px;&quot;&gt;&lt;b&gt;1&lt;/b&gt;&lt;/font&gt;" style="text;html=1;align=center;verticalAlign=middle;whiteSpace=wrap;rounded=0;fontColor=#FFFFFF;rotation=-90;" parent="1" vertex="1">
          <mxGeometry x="2769.34" y="1616.5" width="60" height="27.5" as="geometry" />
        </mxCell>
        <mxCell id="ixsVfjGWsq4LzC2qJ3sS-206" value="&lt;font style=&quot;color: rgb(0, 0, 0); font-size: 30px;&quot;&gt;&lt;b&gt;M&lt;/b&gt;&lt;/font&gt;" style="text;html=1;align=center;verticalAlign=middle;whiteSpace=wrap;rounded=0;fontColor=#FFFFFF;rotation=-75;" parent="1" vertex="1">
          <mxGeometry x="2840" y="1347.5" width="60" height="27.5" as="geometry" />
        </mxCell>
        <mxCell id="ixsVfjGWsq4LzC2qJ3sS-207" style="rounded=0;orthogonalLoop=1;jettySize=auto;html=1;entryX=1;entryY=0.5;entryDx=0;entryDy=0;strokeColor=#23445D;endArrow=none;startFill=0;exitX=0.5;exitY=1;exitDx=0;exitDy=0;strokeWidth=4;" parent="1" source="ixsVfjGWsq4LzC2qJ3sS-212" target="ixsVfjGWsq4LzC2qJ3sS-218" edge="1">
          <mxGeometry relative="1" as="geometry">
            <mxPoint x="4015" y="1555" as="targetPoint" />
            <Array as="points" />
          </mxGeometry>
        </mxCell>
        <mxCell id="ixsVfjGWsq4LzC2qJ3sS-210" style="edgeStyle=orthogonalEdgeStyle;rounded=0;orthogonalLoop=1;jettySize=auto;html=1;strokeColor=#23445D;exitX=0.5;exitY=0;exitDx=0;exitDy=0;endArrow=none;startFill=0;entryX=0.418;entryY=1.08;entryDx=0;entryDy=0;entryPerimeter=0;strokeWidth=2;" parent="1" target="ixsVfjGWsq4LzC2qJ3sS-196" edge="1">
          <mxGeometry relative="1" as="geometry">
            <mxPoint x="4024.34" y="1300" as="sourcePoint" />
            <mxPoint x="4275.469999999999" y="1040" as="targetPoint" />
            <Array as="points">
              <mxPoint x="4024" y="1150" />
              <mxPoint x="4164" y="1150" />
            </Array>
          </mxGeometry>
        </mxCell>
        <mxCell id="ixsVfjGWsq4LzC2qJ3sS-211" style="edgeStyle=orthogonalEdgeStyle;rounded=0;orthogonalLoop=1;jettySize=auto;html=1;entryX=1;entryY=0.5;entryDx=0;entryDy=0;endArrow=none;startFill=0;strokeWidth=2;shape=link;" parent="1" source="ixsVfjGWsq4LzC2qJ3sS-212" target="ixsVfjGWsq4LzC2qJ3sS-234" edge="1">
          <mxGeometry relative="1" as="geometry">
            <mxPoint x="2520" y="274.81500000000005" as="targetPoint" />
            <Array as="points">
              <mxPoint x="4025" y="275" />
              <mxPoint x="2510" y="275" />
            </Array>
          </mxGeometry>
        </mxCell>
        <mxCell id="K7v5izBzIZWcgRyMSrnI-2" style="rounded=0;orthogonalLoop=1;jettySize=auto;html=1;entryX=1;entryY=0.5;entryDx=0;entryDy=0;strokeWidth=2;endArrow=none;startFill=0;exitX=0;exitY=0.25;exitDx=0;exitDy=0;" edge="1" parent="1" source="ixsVfjGWsq4LzC2qJ3sS-212" target="K7v5izBzIZWcgRyMSrnI-1">
          <mxGeometry relative="1" as="geometry" />
        </mxCell>
        <mxCell id="ixsVfjGWsq4LzC2qJ3sS-212" value="&lt;b style=&quot;color: rgb(255, 255, 255);&quot;&gt;&lt;font style=&quot;font-size: 30px;&quot;&gt;Question&lt;/font&gt;&lt;/b&gt;" style="html=1;dashed=0;whiteSpace=wrap;fillColor=light-dark(#bc124c, #1d293b);strokeColor=#6c8ebf;rounded=1;rotation=0;arcSize=50;" parent="1" vertex="1">
          <mxGeometry x="3906" y="1310" width="237.84" height="80" as="geometry" />
        </mxCell>
        <mxCell id="ixsVfjGWsq4LzC2qJ3sS-213" style="rounded=0;orthogonalLoop=1;jettySize=auto;html=1;entryX=0;entryY=0.5;entryDx=0;entryDy=0;strokeColor=#23445D;endArrow=none;startFill=0;exitX=0.5;exitY=0;exitDx=0;exitDy=0;shape=link;strokeWidth=2;" parent="1" source="ixsVfjGWsq4LzC2qJ3sS-215" target="ixsVfjGWsq4LzC2qJ3sS-218" edge="1">
          <mxGeometry relative="1" as="geometry">
            <mxPoint x="4011.66" y="1931.25" as="targetPoint" />
          </mxGeometry>
        </mxCell>
        <mxCell id="ixsVfjGWsq4LzC2qJ3sS-214" style="rounded=0;orthogonalLoop=1;jettySize=auto;html=1;endArrow=none;startFill=0;strokeWidth=2;exitX=0.5;exitY=0;exitDx=0;exitDy=0;" parent="1" source="ixsVfjGWsq4LzC2qJ3sS-215" target="ixsVfjGWsq4LzC2qJ3sS-220" edge="1">
          <mxGeometry relative="1" as="geometry" />
        </mxCell>
        <mxCell id="ixsVfjGWsq4LzC2qJ3sS-254" style="rounded=0;orthogonalLoop=1;jettySize=auto;html=1;exitX=0.5;exitY=0;exitDx=0;exitDy=0;entryX=0.422;entryY=1.048;entryDx=0;entryDy=0;endArrow=none;endFill=0;entryPerimeter=0;strokeWidth=2;" parent="1" source="ixsVfjGWsq4LzC2qJ3sS-215" target="ixsVfjGWsq4LzC2qJ3sS-251" edge="1">
          <mxGeometry relative="1" as="geometry" />
        </mxCell>
        <mxCell id="ixsVfjGWsq4LzC2qJ3sS-255" style="rounded=0;orthogonalLoop=1;jettySize=auto;html=1;exitX=0.5;exitY=0;exitDx=0;exitDy=0;entryX=0.5;entryY=1;entryDx=0;entryDy=0;endArrow=none;endFill=0;strokeWidth=2;" parent="1" source="ixsVfjGWsq4LzC2qJ3sS-215" target="ixsVfjGWsq4LzC2qJ3sS-253" edge="1">
          <mxGeometry relative="1" as="geometry" />
        </mxCell>
        <mxCell id="d0LR6xK-CXsM-hkLY7xV-13" style="rounded=0;orthogonalLoop=1;jettySize=auto;html=1;entryX=0.5;entryY=1;entryDx=0;entryDy=0;endArrow=none;startFill=0;exitX=0.5;exitY=0;exitDx=0;exitDy=0;strokeWidth=2;" parent="1" source="ixsVfjGWsq4LzC2qJ3sS-215" target="d0LR6xK-CXsM-hkLY7xV-9" edge="1">
          <mxGeometry relative="1" as="geometry" />
        </mxCell>
        <mxCell id="ixsVfjGWsq4LzC2qJ3sS-215" value="&lt;b style=&quot;color: rgb(255, 255, 255);&quot;&gt;&lt;font style=&quot;font-size: 30px;&quot;&gt;Choices&lt;/font&gt;&lt;/b&gt;" style="html=1;dashed=0;whiteSpace=wrap;fillColor=light-dark(#bc124c, #1d293b);strokeColor=#6c8ebf;rounded=1;rotation=0;" parent="1" vertex="1">
          <mxGeometry x="3906" y="1990" width="237.84" height="80" as="geometry" />
        </mxCell>
        <mxCell id="ixsVfjGWsq4LzC2qJ3sS-216" value="&lt;font style=&quot;color: rgb(0, 0, 0); font-size: 26px;&quot;&gt;&lt;b style=&quot;&quot;&gt;M&lt;/b&gt;&lt;/font&gt;" style="text;html=1;align=center;verticalAlign=middle;whiteSpace=wrap;rounded=0;fontColor=#FFFFFF;rotation=-95;" parent="1" vertex="1">
          <mxGeometry x="3966.66" y="1898.75" width="60" height="27.5" as="geometry" />
        </mxCell>
        <mxCell id="ixsVfjGWsq4LzC2qJ3sS-218" value="&lt;font style=&quot;font-size: 30px;&quot;&gt;&lt;b&gt;has&lt;/b&gt;&lt;/font&gt;" style="rhombus;whiteSpace=wrap;html=1;rounded=1;fillColor=#f0a30a;strokeColor=#BD7000;fontColor=#000000;rotation=-90;" parent="1" vertex="1">
          <mxGeometry x="3934.8199999999997" y="1746.25" width="180" height="90" as="geometry" />
        </mxCell>
        <mxCell id="ixsVfjGWsq4LzC2qJ3sS-219" value="&lt;font style=&quot;color: rgb(0, 0, 0); font-size: 30px;&quot;&gt;&lt;b&gt;1&lt;/b&gt;&lt;/font&gt;" style="text;html=1;align=center;verticalAlign=middle;whiteSpace=wrap;rounded=0;fontColor=#FFFFFF;rotation=0;" parent="1" vertex="1">
          <mxGeometry x="4170" y="1310.0000000000002" width="60" height="27.5" as="geometry" />
        </mxCell>
        <mxCell id="ixsVfjGWsq4LzC2qJ3sS-220" value="&lt;font color=&quot;#ffffff&quot;&gt;&lt;span style=&quot;font-size: 20px;&quot;&gt;&lt;b&gt;&lt;u&gt;ChoiceID&lt;/u&gt;&lt;/b&gt;&lt;/span&gt;&lt;/font&gt;" style="ellipse;whiteSpace=wrap;html=1;align=center;fillColor=light-dark(#182E3E,#EDEDED);rotation=0;rounded=1;" parent="1" vertex="1">
          <mxGeometry x="4100" y="1723.75" width="112.5" height="40" as="geometry" />
        </mxCell>
        <mxCell id="ixsVfjGWsq4LzC2qJ3sS-221" style="edgeStyle=orthogonalEdgeStyle;rounded=0;orthogonalLoop=1;jettySize=auto;html=1;entryX=0.5;entryY=1;entryDx=0;entryDy=0;strokeColor=#23445D;endArrow=none;startFill=0;strokeWidth=2;shape=link;" parent="1" source="ixsVfjGWsq4LzC2qJ3sS-222" target="ixsVfjGWsq4LzC2qJ3sS-140" edge="1">
          <mxGeometry relative="1" as="geometry" />
        </mxCell>
        <mxCell id="ixsVfjGWsq4LzC2qJ3sS-222" value="&lt;span style=&quot;text-align: left;&quot;&gt;&lt;b&gt;&lt;font style=&quot;color: rgb(255, 255, 255); font-size: 30px;&quot;&gt;enroll&lt;/font&gt;&lt;/b&gt;&lt;/span&gt;" style="rhombus;whiteSpace=wrap;html=1;rounded=1;fillColor=#f0a30a;strokeColor=#BD7000;fontColor=#000000;rotation=0;" parent="1" vertex="1">
          <mxGeometry x="2082.95" y="2900" width="230" height="90" as="geometry" />
        </mxCell>
        <mxCell id="ixsVfjGWsq4LzC2qJ3sS-223" value="&lt;code data-end=&quot;189&quot; data-start=&quot;174&quot;&gt;&lt;b&gt;&lt;font face=&quot;Helvetica&quot; style=&quot;color: rgb(255, 255, 255); font-size: 20px;&quot;&gt;St_CourseGrade&lt;/font&gt;&lt;/b&gt;&lt;/code&gt;" style="ellipse;whiteSpace=wrap;html=1;align=center;fillColor=light-dark(#182e3e, #4a890c);rotation=0;rounded=1;fontColor=#ffffff;strokeColor=#2D7600;" parent="1" vertex="1">
          <mxGeometry x="2087.95" y="2768.75" width="220" height="51.25" as="geometry" />
        </mxCell>
        <mxCell id="ixsVfjGWsq4LzC2qJ3sS-224" style="edgeStyle=orthogonalEdgeStyle;rounded=0;orthogonalLoop=1;jettySize=auto;html=1;entryX=0.5;entryY=1;entryDx=0;entryDy=0;strokeColor=#23445D;endArrow=none;startFill=0;strokeWidth=2;" parent="1" source="ixsVfjGWsq4LzC2qJ3sS-222" target="ixsVfjGWsq4LzC2qJ3sS-223" edge="1">
          <mxGeometry relative="1" as="geometry" />
        </mxCell>
        <mxCell id="ixsVfjGWsq4LzC2qJ3sS-225" value="m" style="text;html=1;align=center;verticalAlign=middle;whiteSpace=wrap;rounded=0;fontColor=#FFFFFF;rotation=0;" parent="1" vertex="1">
          <mxGeometry x="2010" y="2900" width="60" height="30" as="geometry" />
        </mxCell>
        <mxCell id="ixsVfjGWsq4LzC2qJ3sS-226" value="&lt;font style=&quot;color: rgb(0, 0, 0); font-size: 30px;&quot;&gt;&lt;b&gt;M&lt;/b&gt;&lt;/font&gt;" style="text;html=1;align=center;verticalAlign=middle;whiteSpace=wrap;rounded=0;fontColor=#FFFFFF;rotation=0;" parent="1" vertex="1">
          <mxGeometry x="2345.0199999999995" y="2897.5" width="60" height="30" as="geometry" />
        </mxCell>
        <mxCell id="ixsVfjGWsq4LzC2qJ3sS-227" style="edgeStyle=orthogonalEdgeStyle;rounded=0;orthogonalLoop=1;jettySize=auto;html=1;strokeColor=#000000;shape=link;strokeWidth=2;exitX=0;exitY=0.5;exitDx=0;exitDy=0;" parent="1" edge="1">
          <mxGeometry relative="1" as="geometry">
            <Array as="points">
              <mxPoint x="2360" y="270" />
              <mxPoint x="380" y="270" />
              <mxPoint x="380" y="1600" />
              <mxPoint x="902" y="1600" />
            </Array>
            <mxPoint x="2360" y="274.81500000000005" as="sourcePoint" />
            <mxPoint x="900" y="1600" as="targetPoint" />
          </mxGeometry>
        </mxCell>
        <mxCell id="ixsVfjGWsq4LzC2qJ3sS-228" value="Title" style="text;strokeColor=none;fillColor=none;html=1;fontSize=24;fontStyle=1;verticalAlign=middle;align=center;fontColor=#FFFFFF;" parent="1" vertex="1">
          <mxGeometry x="2830" y="750" width="100" height="40" as="geometry" />
        </mxCell>
        <mxCell id="ixsVfjGWsq4LzC2qJ3sS-229" style="edgeStyle=orthogonalEdgeStyle;rounded=0;orthogonalLoop=1;jettySize=auto;html=1;entryX=0.457;entryY=0.812;entryDx=0;entryDy=0;entryPerimeter=0;endArrow=none;startFill=0;strokeWidth=2;" parent="1" source="ixsVfjGWsq4LzC2qJ3sS-163" target="ixsVfjGWsq4LzC2qJ3sS-187" edge="1">
          <mxGeometry relative="1" as="geometry">
            <Array as="points">
              <mxPoint x="2949" y="750" />
              <mxPoint x="3050" y="750" />
            </Array>
          </mxGeometry>
        </mxCell>
        <mxCell id="ixsVfjGWsq4LzC2qJ3sS-267" style="edgeStyle=orthogonalEdgeStyle;rounded=0;orthogonalLoop=1;jettySize=auto;html=1;exitX=0.5;exitY=0;exitDx=0;exitDy=0;entryX=0.5;entryY=1;entryDx=0;entryDy=0;endArrow=none;endFill=0;strokeWidth=2;" parent="1" source="ixsVfjGWsq4LzC2qJ3sS-234" target="ixsVfjGWsq4LzC2qJ3sS-266" edge="1">
          <mxGeometry relative="1" as="geometry" />
        </mxCell>
        <mxCell id="d0LR6xK-CXsM-hkLY7xV-4" style="edgeStyle=orthogonalEdgeStyle;rounded=0;orthogonalLoop=1;jettySize=auto;html=1;entryX=0.5;entryY=1;entryDx=0;entryDy=0;strokeWidth=2;endArrow=none;startFill=0;" parent="1" source="ixsVfjGWsq4LzC2qJ3sS-234" target="d0LR6xK-CXsM-hkLY7xV-3" edge="1">
          <mxGeometry relative="1" as="geometry" />
        </mxCell>
        <mxCell id="d0LR6xK-CXsM-hkLY7xV-5" style="edgeStyle=orthogonalEdgeStyle;rounded=0;orthogonalLoop=1;jettySize=auto;html=1;endArrow=none;startFill=0;strokeWidth=2;" parent="1" source="ixsVfjGWsq4LzC2qJ3sS-234" target="d0LR6xK-CXsM-hkLY7xV-2" edge="1">
          <mxGeometry relative="1" as="geometry" />
        </mxCell>
        <mxCell id="ixsVfjGWsq4LzC2qJ3sS-234" value="&lt;b style=&quot;text-align: left;&quot;&gt;&lt;font style=&quot;font-size: 30px; color: rgb(255, 255, 255);&quot;&gt;has&lt;/font&gt;&lt;/b&gt;" style="shape=associativeEntity;whiteSpace=wrap;html=1;align=center;fillColor=light-dark(#f0a30a, #ededed);" parent="1" vertex="1">
          <mxGeometry x="2360" y="240" width="150" height="60" as="geometry" />
        </mxCell>
        <mxCell id="ixsVfjGWsq4LzC2qJ3sS-235" value="&lt;b style=&quot;text-align: left;&quot;&gt;&lt;font style=&quot;font-size: 30px; color: rgb(0, 0, 0);&quot;&gt;has&lt;/font&gt;&lt;/b&gt;" style="shape=associativeEntity;whiteSpace=wrap;html=1;align=center;fillColor=light-dark(#f0a30a, #ededed);" parent="1" vertex="1">
          <mxGeometry x="1060" y="2558.75" width="160" height="71.25" as="geometry" />
        </mxCell>
        <mxCell id="ixsVfjGWsq4LzC2qJ3sS-236" value="&lt;code data-end=&quot;189&quot; data-start=&quot;174&quot;&gt;&lt;b&gt;&lt;font face=&quot;Helvetica&quot; style=&quot;color: rgb(255, 255, 255); font-size: 20px;&quot;&gt;DepartementName&lt;/font&gt;&lt;/b&gt;&lt;/code&gt;" style="ellipse;whiteSpace=wrap;html=1;align=center;fillColor=light-dark(#182E3E,#EDEDED);rotation=-60;rounded=1;" parent="1" vertex="1">
          <mxGeometry x="1592.2000000000003" y="2083.86" width="205.59" height="56.14" as="geometry" />
        </mxCell>
        <mxCell id="ixsVfjGWsq4LzC2qJ3sS-237" value="&lt;b style=&quot;color: rgb(0, 0, 0); font-family: monospace;&quot;&gt;&lt;font style=&quot;color: rgb(255, 255, 255); font-size: 20px;&quot; face=&quot;Helvetica&quot;&gt;DepartementID&lt;/font&gt;&lt;/b&gt;" style="ellipse;whiteSpace=wrap;html=1;align=center;fontStyle=4;strokeColor=#FFFFFF;fontColor=#FFFFFF;fillColor=#182E3E;rotation=-45;" parent="1" vertex="1">
          <mxGeometry x="1770" y="2003.25" width="166" height="61" as="geometry" />
        </mxCell>
        <mxCell id="ixsVfjGWsq4LzC2qJ3sS-238" value="&lt;b style=&quot;color: rgb(255, 255, 255);&quot;&gt;&lt;font style=&quot;font-size: 30px;&quot;&gt;Department&lt;/font&gt;&lt;/b&gt;" style="html=1;dashed=0;whiteSpace=wrap;fillColor=light-dark(#bc124c, #1d293b);strokeColor=#6c8ebf;rounded=1;rotation=-65;gradientColor=none;glass=0;arcSize=14;flipH=1;flipV=1;" parent="1" vertex="1">
          <mxGeometry x="1857.4700000000003" y="2101.6099999999997" width="213.4" height="66.92" as="geometry" />
        </mxCell>
        <mxCell id="ixsVfjGWsq4LzC2qJ3sS-239" style="rounded=0;orthogonalLoop=1;jettySize=auto;html=1;strokeColor=#23445D;endArrow=none;startFill=0;strokeWidth=2;" parent="1" source="ixsVfjGWsq4LzC2qJ3sS-237" edge="1">
          <mxGeometry relative="1" as="geometry">
            <mxPoint x="1810" y="2030" as="sourcePoint" />
            <mxPoint x="1930" y="2120" as="targetPoint" />
          </mxGeometry>
        </mxCell>
        <mxCell id="ixsVfjGWsq4LzC2qJ3sS-240" style="rounded=0;orthogonalLoop=1;jettySize=auto;html=1;strokeColor=#23445D;endArrow=none;startFill=0;strokeWidth=2;entryX=0.5;entryY=0;entryDx=0;entryDy=0;" parent="1" source="ixsVfjGWsq4LzC2qJ3sS-236" target="ixsVfjGWsq4LzC2qJ3sS-238" edge="1">
          <mxGeometry relative="1" as="geometry">
            <mxPoint x="1780" y="2110" as="sourcePoint" />
            <mxPoint x="1900" y="2200" as="targetPoint" />
          </mxGeometry>
        </mxCell>
        <mxCell id="ixsVfjGWsq4LzC2qJ3sS-241" value="&lt;code data-end=&quot;189&quot; data-start=&quot;174&quot;&gt;&lt;b&gt;&lt;font face=&quot;Helvetica&quot; style=&quot;color: rgb(255, 255, 255); font-size: 20px;&quot;&gt;IntakeName&lt;/font&gt;&lt;/b&gt;&lt;/code&gt;" style="ellipse;whiteSpace=wrap;html=1;align=center;fillColor=light-dark(#182E3E,#EDEDED);rotation=0;rounded=1;" parent="1" vertex="1">
          <mxGeometry x="528.77" y="2518.75" width="130" height="40" as="geometry" />
        </mxCell>
        <mxCell id="ixsVfjGWsq4LzC2qJ3sS-242" value="&lt;code data-end=&quot;189&quot; data-start=&quot;174&quot;&gt;&lt;b&gt;&lt;font face=&quot;Helvetica&quot; style=&quot;color: rgb(255, 255, 255); font-size: 20px;&quot;&gt;Description&lt;/font&gt;&lt;/b&gt;&lt;/code&gt;" style="ellipse;whiteSpace=wrap;html=1;align=center;fillColor=light-dark(#182E3E,#EDEDED);rotation=0;rounded=1;" parent="1" vertex="1">
          <mxGeometry x="1420" y="2401.88" width="140" height="40" as="geometry" />
        </mxCell>
        <mxCell id="ixsVfjGWsq4LzC2qJ3sS-246" value="&lt;code data-end=&quot;189&quot; data-start=&quot;174&quot;&gt;&lt;b&gt;&lt;font face=&quot;Helvetica&quot; style=&quot;color: rgb(255, 255, 255); font-size: 20px;&quot;&gt;CourseStatues&lt;/font&gt;&lt;/b&gt;&lt;/code&gt;" style="ellipse;whiteSpace=wrap;html=1;align=center;fillColor=light-dark(#182E3E,#EDEDED);rotation=0;rounded=1;" parent="1" vertex="1">
          <mxGeometry x="2550" y="1711.25" width="176" height="40" as="geometry" />
        </mxCell>
        <mxCell id="ixsVfjGWsq4LzC2qJ3sS-257" style="edgeStyle=orthogonalEdgeStyle;rounded=0;orthogonalLoop=1;jettySize=auto;html=1;exitX=0.5;exitY=0;exitDx=0;exitDy=0;endArrow=none;endFill=0;" parent="1" source="ixsVfjGWsq4LzC2qJ3sS-249" target="ixsVfjGWsq4LzC2qJ3sS-256" edge="1">
          <mxGeometry relative="1" as="geometry" />
        </mxCell>
        <mxCell id="ixsVfjGWsq4LzC2qJ3sS-258" style="rounded=0;orthogonalLoop=1;jettySize=auto;html=1;entryX=1;entryY=0.5;entryDx=0;entryDy=0;endArrow=none;endFill=0;strokeWidth=2;exitX=0.969;exitY=0.511;exitDx=0;exitDy=0;exitPerimeter=0;" parent="1" source="ixsVfjGWsq4LzC2qJ3sS-259" target="ixsVfjGWsq4LzC2qJ3sS-212" edge="1">
          <mxGeometry relative="1" as="geometry">
            <mxPoint x="4250" y="1350" as="sourcePoint" />
          </mxGeometry>
        </mxCell>
        <mxCell id="ixsVfjGWsq4LzC2qJ3sS-249" value="&lt;b style=&quot;color: rgb(255, 255, 255);&quot;&gt;&lt;font style=&quot;font-size: 30px;&quot;&gt;TextQuestion&lt;/font&gt;&lt;/b&gt;" style="html=1;dashed=0;whiteSpace=wrap;fillColor=light-dark(#bc124c, #1d293b);strokeColor=#6c8ebf;rounded=1;rotation=0;arcSize=50;" parent="1" vertex="1">
          <mxGeometry x="4520" y="1305" width="237.84" height="80" as="geometry" />
        </mxCell>
        <mxCell id="ixsVfjGWsq4LzC2qJ3sS-251" value="&lt;font color=&quot;#ffffff&quot;&gt;&lt;span style=&quot;font-size: 20px;&quot;&gt;&lt;b&gt;IsCorrect&lt;/b&gt;&lt;/span&gt;&lt;/font&gt;" style="ellipse;whiteSpace=wrap;html=1;align=center;fillColor=light-dark(#182E3E,#EDEDED);rotation=45;rounded=1;" parent="1" vertex="1">
          <mxGeometry x="4220" y="1917.5" width="120" height="40" as="geometry" />
        </mxCell>
        <mxCell id="ixsVfjGWsq4LzC2qJ3sS-253" value="&lt;font color=&quot;#ffffff&quot;&gt;&lt;span style=&quot;font-size: 20px;&quot;&gt;&lt;b&gt;ChoiceText&lt;/b&gt;&lt;/span&gt;&lt;/font&gt;" style="ellipse;whiteSpace=wrap;html=1;align=center;fillColor=light-dark(#182E3E,#EDEDED);rotation=0;rounded=1;" parent="1" vertex="1">
          <mxGeometry x="3730" y="1822.5" width="132.5" height="40" as="geometry" />
        </mxCell>
        <mxCell id="ixsVfjGWsq4LzC2qJ3sS-256" value="&lt;font style=&quot;font-size: 23px;&quot; color=&quot;#ffffff&quot;&gt;&lt;b&gt;BestTextAnswer&lt;/b&gt;&lt;/font&gt;" style="ellipse;whiteSpace=wrap;html=1;align=center;fillColor=light-dark(#182e3e, #ededed);rotation=0;rounded=1;strokeColor=light-dark(#182e3e, #ededed);" parent="1" vertex="1">
          <mxGeometry x="4526.42" y="1111.25" width="225" height="82.5" as="geometry" />
        </mxCell>
        <mxCell id="ixsVfjGWsq4LzC2qJ3sS-259" value="&lt;font style=&quot;font-size: 30px;&quot;&gt;&lt;b&gt;has&lt;/b&gt;&lt;/font&gt;" style="rhombus;whiteSpace=wrap;html=1;rounded=1;fillColor=#f0a30a;strokeColor=#BD7000;fontColor=#000000;rotation=0;direction=west;" parent="1" vertex="1">
          <mxGeometry x="4230" y="1305" width="180" height="90" as="geometry" />
        </mxCell>
        <mxCell id="ixsVfjGWsq4LzC2qJ3sS-261" value="&lt;font style=&quot;color: rgb(0, 0, 0); font-size: 30px;&quot;&gt;&lt;b&gt;M&lt;/b&gt;&lt;/font&gt;" style="text;html=1;align=center;verticalAlign=middle;whiteSpace=wrap;rounded=0;fontColor=#FFFFFF;rotation=1;" parent="1" vertex="1">
          <mxGeometry x="4430.0023493811905" y="1320.0042324055328" width="60" height="27.5" as="geometry" />
        </mxCell>
        <mxCell id="ixsVfjGWsq4LzC2qJ3sS-262" value="&lt;font style=&quot;color: rgb(0, 0, 0); font-size: 30px;&quot;&gt;&lt;b&gt;1&lt;/b&gt;&lt;/font&gt;" style="text;html=1;align=center;verticalAlign=middle;whiteSpace=wrap;rounded=0;fontColor=#FFFFFF;rotation=-90;" parent="1" vertex="1">
          <mxGeometry x="3965" y="1660.0000000000002" width="60" height="27.5" as="geometry" />
        </mxCell>
        <mxCell id="ixsVfjGWsq4LzC2qJ3sS-266" value="&lt;font color=&quot;#ffffff&quot;&gt;&lt;span style=&quot;font-size: 20px;&quot;&gt;&lt;b&gt;&lt;u&gt;StudentQAnswer&lt;/u&gt;&lt;/b&gt;&lt;/span&gt;&lt;/font&gt;" style="ellipse;whiteSpace=wrap;html=1;align=center;fillColor=light-dark(#182E3E,#EDEDED);rotation=0;rounded=1;" parent="1" vertex="1">
          <mxGeometry x="2324.75" y="10" width="220.5" height="60" as="geometry" />
        </mxCell>
        <mxCell id="ixsVfjGWsq4LzC2qJ3sS-287" style="edgeStyle=orthogonalEdgeStyle;rounded=0;orthogonalLoop=1;jettySize=auto;html=1;entryX=0.5;entryY=1;entryDx=0;entryDy=0;endArrow=none;endFill=0;strokeWidth=2;" parent="1" target="ixsVfjGWsq4LzC2qJ3sS-283" edge="1">
          <mxGeometry relative="1" as="geometry">
            <mxPoint x="1190" y="140" as="sourcePoint" />
          </mxGeometry>
        </mxCell>
        <mxCell id="ixsVfjGWsq4LzC2qJ3sS-290" style="edgeStyle=orthogonalEdgeStyle;rounded=0;orthogonalLoop=1;jettySize=auto;html=1;exitX=1;exitY=0.5;exitDx=0;exitDy=0;entryX=0;entryY=0.75;entryDx=0;entryDy=0;shape=link;strokeWidth=2;" parent="1" source="ixsVfjGWsq4LzC2qJ3sS-280" target="ixsVfjGWsq4LzC2qJ3sS-163" edge="1">
          <mxGeometry relative="1" as="geometry" />
        </mxCell>
        <mxCell id="ixsVfjGWsq4LzC2qJ3sS-291" style="edgeStyle=orthogonalEdgeStyle;rounded=0;orthogonalLoop=1;jettySize=auto;html=1;exitX=0.5;exitY=0;exitDx=0;exitDy=0;entryX=0.5;entryY=1;entryDx=0;entryDy=0;endArrow=none;endFill=0;strokeWidth=2;" parent="1" source="ixsVfjGWsq4LzC2qJ3sS-280" target="ixsVfjGWsq4LzC2qJ3sS-284" edge="1">
          <mxGeometry relative="1" as="geometry" />
        </mxCell>
        <mxCell id="ixsVfjGWsq4LzC2qJ3sS-293" style="edgeStyle=orthogonalEdgeStyle;rounded=0;orthogonalLoop=1;jettySize=auto;html=1;endArrow=none;endFill=0;strokeWidth=2;" parent="1" target="ixsVfjGWsq4LzC2qJ3sS-286" edge="1">
          <mxGeometry relative="1" as="geometry">
            <mxPoint x="1193" y="140" as="sourcePoint" />
          </mxGeometry>
        </mxCell>
        <mxCell id="ixsVfjGWsq4LzC2qJ3sS-280" value="&lt;span style=&quot;text-align: left;&quot;&gt;&lt;b&gt;&lt;font style=&quot;color: rgb(255, 255, 255); font-size: 30px;&quot;&gt;Take&lt;/font&gt;&lt;/b&gt;&lt;/span&gt;" style="rhombus;whiteSpace=wrap;html=1;rounded=1;fillColor=#f0a30a;strokeColor=#BD7000;fontColor=#000000;" parent="1" vertex="1">
          <mxGeometry x="1048.27" y="140" width="290" height="90" as="geometry" />
        </mxCell>
        <mxCell id="ixsVfjGWsq4LzC2qJ3sS-283" value="&lt;b&gt;&lt;font style=&quot;color: rgb(255, 255, 255); font-size: 16px;&quot;&gt;ExamDate&lt;/font&gt;&lt;/b&gt;" style="ellipse;whiteSpace=wrap;html=1;align=center;fillColor=light-dark(#182E3E,#1D293B);rotation=0;rounded=1;strokeColor=light-dark(#182e3e, #ededed);" parent="1" vertex="1">
          <mxGeometry x="1310" y="70" width="150" height="40" as="geometry" />
        </mxCell>
        <mxCell id="ixsVfjGWsq4LzC2qJ3sS-284" value="&lt;b&gt;&lt;font style=&quot;color: rgb(255, 255, 255); font-size: 16px;&quot;&gt;EndTime&lt;/font&gt;&lt;/b&gt;" style="ellipse;whiteSpace=wrap;html=1;align=center;fillColor=light-dark(#182E3E,#1D293B);rotation=0;rounded=1;strokeColor=light-dark(#182e3e, #ededed);" parent="1" vertex="1">
          <mxGeometry x="1220" y="-20" width="150" height="40" as="geometry" />
        </mxCell>
        <mxCell id="ixsVfjGWsq4LzC2qJ3sS-285" value="&lt;b&gt;&lt;font style=&quot;color: rgb(255, 255, 255); font-size: 16px;&quot;&gt;StartTime&lt;/font&gt;&lt;/b&gt;" style="ellipse;whiteSpace=wrap;html=1;align=center;fillColor=light-dark(#182E3E,#1D293B);rotation=0;rounded=1;strokeColor=light-dark(#182e3e, #ededed);" parent="1" vertex="1">
          <mxGeometry x="1111.83" y="-80" width="150" height="40" as="geometry" />
        </mxCell>
        <mxCell id="ixsVfjGWsq4LzC2qJ3sS-286" value="&lt;b&gt;&lt;font style=&quot;color: rgb(255, 255, 255); font-size: 16px;&quot;&gt;StudentGrade&lt;/font&gt;&lt;/b&gt;" style="ellipse;whiteSpace=wrap;html=1;align=center;fillColor=light-dark(#182E3E,#1D293B);rotation=0;rounded=1;strokeColor=light-dark(#182e3e, #ededed);" parent="1" vertex="1">
          <mxGeometry x="1026.57" y="10" width="150" height="40" as="geometry" />
        </mxCell>
        <mxCell id="ixsVfjGWsq4LzC2qJ3sS-288" style="edgeStyle=orthogonalEdgeStyle;rounded=0;orthogonalLoop=1;jettySize=auto;html=1;entryX=0.5;entryY=1;entryDx=0;entryDy=0;endArrow=none;endFill=0;strokeWidth=2;" parent="1" target="ixsVfjGWsq4LzC2qJ3sS-285" edge="1">
          <mxGeometry relative="1" as="geometry">
            <mxPoint x="1190" y="140" as="sourcePoint" />
          </mxGeometry>
        </mxCell>
        <mxCell id="Ghf1ed_SE9yKlhXQrwtr-1" value="&lt;font style=&quot;color: rgb(0, 0, 0); font-size: 30px;&quot;&gt;&lt;b&gt;1&lt;/b&gt;&lt;/font&gt;" style="text;html=1;align=center;verticalAlign=middle;whiteSpace=wrap;rounded=0;fontColor=#FFFFFF;rotation=-30;" parent="1" vertex="1">
          <mxGeometry x="2314.16" y="1299.57" width="60" height="27.5" as="geometry" />
        </mxCell>
        <mxCell id="d0LR6xK-CXsM-hkLY7xV-1" value="&lt;font style=&quot;color: rgb(0, 0, 0); font-size: 30px;&quot;&gt;&lt;b&gt;M&lt;/b&gt;&lt;/font&gt;" style="text;html=1;align=center;verticalAlign=middle;whiteSpace=wrap;rounded=0;fontColor=#FFFFFF;rotation=0;" parent="1" vertex="1">
          <mxGeometry x="2009.9999999999995" y="2897.5" width="60" height="30" as="geometry" />
        </mxCell>
        <mxCell id="d0LR6xK-CXsM-hkLY7xV-2" value="&lt;code data-end=&quot;189&quot; data-start=&quot;174&quot;&gt;&lt;b&gt;&lt;font face=&quot;Helvetica&quot; style=&quot;color: rgb(255, 255, 255); font-size: 20px;&quot;&gt;StudentQGrade&lt;/font&gt;&lt;/b&gt;&lt;/code&gt;" style="ellipse;whiteSpace=wrap;html=1;align=center;fillColor=light-dark(#182e3e, #ededed);rotation=0;rounded=1;" parent="1" vertex="1">
          <mxGeometry x="2485.94" y="130" width="164.06" height="50" as="geometry" />
        </mxCell>
        <mxCell id="d0LR6xK-CXsM-hkLY7xV-3" value="&lt;code data-end=&quot;189&quot; data-start=&quot;174&quot;&gt;&lt;b&gt;&lt;font face=&quot;Helvetica&quot; style=&quot;color: rgb(255, 255, 255); font-size: 20px;&quot;&gt;AnswerIsValid&lt;/font&gt;&lt;/b&gt;&lt;/code&gt;" style="ellipse;whiteSpace=wrap;html=1;align=center;fillColor=light-dark(#182e3e, #ededed);rotation=0;rounded=1;" parent="1" vertex="1">
          <mxGeometry x="2243.94" y="120" width="164.06" height="50" as="geometry" />
        </mxCell>
        <mxCell id="d0LR6xK-CXsM-hkLY7xV-8" style="rounded=0;orthogonalLoop=1;jettySize=auto;html=1;entryX=0.021;entryY=0.489;entryDx=0;entryDy=0;entryPerimeter=0;strokeWidth=2;endArrow=none;startFill=0;" parent="1" source="ixsVfjGWsq4LzC2qJ3sS-249" target="ixsVfjGWsq4LzC2qJ3sS-259" edge="1">
          <mxGeometry relative="1" as="geometry" />
        </mxCell>
        <mxCell id="d0LR6xK-CXsM-hkLY7xV-9" value="&lt;font color=&quot;#ffffff&quot;&gt;&lt;span style=&quot;font-size: 20px;&quot;&gt;&lt;b&gt;ChoiceLetter&lt;/b&gt;&lt;/span&gt;&lt;/font&gt;" style="ellipse;whiteSpace=wrap;html=1;align=center;fillColor=light-dark(#182E3E,#EDEDED);rotation=0;rounded=1;" parent="1" vertex="1">
          <mxGeometry x="4220" y="1800" width="147.5" height="40" as="geometry" />
        </mxCell>
        <mxCell id="d0LR6xK-CXsM-hkLY7xV-14" value="" style="rounded=0;whiteSpace=wrap;html=1;strokeColor=none;" parent="1" vertex="1">
          <mxGeometry x="80" y="1703.75" width="120" height="60" as="geometry" />
        </mxCell>
        <mxCell id="d0LR6xK-CXsM-hkLY7xV-15" value="" style="rounded=0;whiteSpace=wrap;html=1;strokeColor=none;" parent="1" vertex="1">
          <mxGeometry x="1750" y="2970" width="120" height="60" as="geometry" />
        </mxCell>
        <mxCell id="d0LR6xK-CXsM-hkLY7xV-16" value="" style="rounded=0;whiteSpace=wrap;html=1;strokeColor=none;" parent="1" vertex="1">
          <mxGeometry x="4675" y="1449.47" width="120" height="60" as="geometry" />
        </mxCell>
        <mxCell id="d0LR6xK-CXsM-hkLY7xV-17" value="" style="rounded=0;whiteSpace=wrap;html=1;strokeColor=none;" parent="1" vertex="1">
          <mxGeometry x="1325" y="-120" width="120" height="60" as="geometry" />
        </mxCell>
        <mxCell id="K7v5izBzIZWcgRyMSrnI-1" value="&lt;span style=&quot;text-align: left;&quot;&gt;&lt;b&gt;&lt;font style=&quot;color: rgb(255, 255, 255); font-size: 30px;&quot;&gt;has&lt;/font&gt;&lt;/b&gt;&lt;/span&gt;" style="rhombus;whiteSpace=wrap;html=1;rounded=1;fillColor=#f0a30a;strokeColor=#BD7000;fontColor=#000000;rotation=15;" vertex="1" parent="1">
          <mxGeometry x="3300" y="1090" width="230" height="90" as="geometry" />
        </mxCell>
        <mxCell id="K7v5izBzIZWcgRyMSrnI-4" value="&lt;font style=&quot;color: rgb(0, 0, 0); font-size: 30px;&quot;&gt;&lt;b&gt;M&lt;/b&gt;&lt;/font&gt;" style="text;html=1;align=center;verticalAlign=middle;whiteSpace=wrap;rounded=0;fontColor=#FFFFFF;rotation=15;" vertex="1" parent="1">
          <mxGeometry x="3250" y="1052.5" width="60" height="27.5" as="geometry" />
        </mxCell>
        <mxCell id="K7v5izBzIZWcgRyMSrnI-6" value="&lt;font style=&quot;color: rgb(0, 0, 0); font-size: 30px;&quot;&gt;&lt;b&gt;M&lt;/b&gt;&lt;/font&gt;" style="text;html=1;align=center;verticalAlign=middle;whiteSpace=wrap;rounded=0;fontColor=#FFFFFF;rotation=30;" vertex="1" parent="1">
          <mxGeometry x="3560" y="1152.5" width="60" height="27.5" as="geometry" />
        </mxCell>
        <mxCell id="K7v5izBzIZWcgRyMSrnI-7" value="&lt;font style=&quot;color: rgb(0, 0, 0); font-size: 30px;&quot;&gt;&lt;b&gt;M&lt;/b&gt;&lt;/font&gt;" style="text;html=1;align=center;verticalAlign=middle;whiteSpace=wrap;rounded=0;fontColor=#FFFFFF;rotation=0;" vertex="1" parent="1">
          <mxGeometry x="2555.94" y="240" width="60" height="27.5" as="geometry" />
        </mxCell>
        <mxCell id="K7v5izBzIZWcgRyMSrnI-8" value="&lt;font style=&quot;color: rgb(0, 0, 0); font-size: 30px;&quot;&gt;&lt;b&gt;M&lt;/b&gt;&lt;/font&gt;" style="text;html=1;align=center;verticalAlign=middle;whiteSpace=wrap;rounded=0;fontColor=#FFFFFF;rotation=0;" vertex="1" parent="1">
          <mxGeometry x="2280" y="240" width="60" height="27.5" as="geometry" />
        </mxCell>
        <mxCell id="K7v5izBzIZWcgRyMSrnI-9" value="&lt;font style=&quot;color: rgb(0, 0, 0); font-size: 30px;&quot;&gt;&lt;b&gt;M&lt;/b&gt;&lt;/font&gt;" style="text;html=1;align=center;verticalAlign=middle;whiteSpace=wrap;rounded=0;fontColor=#FFFFFF;rotation=0;" vertex="1" parent="1">
          <mxGeometry x="2445" y="340" width="60" height="27.5" as="geometry" />
        </mxCell>
      </root>
    </mxGraphModel>
  </diagram>
</mxfile>
